<?xml version="1.0" encoding="UTF-8" standalone="no"?>
<!-- Created with Inkscape (http://www.inkscape.org/) -->

<svg
   width="1200"
   height="600"
   viewBox="0 0 317.5 158.75"
   version="1.1"
   id="svg8"
   sodipodi:docname="wind-desert.svg"
   inkscape:version="1.1 (c4e8f9ed74, 2021-05-24)"
   xmlns:inkscape="http://www.inkscape.org/namespaces/inkscape"
   xmlns:sodipodi="http://sodipodi.sourceforge.net/DTD/sodipodi-0.dtd"
   xmlns="http://www.w3.org/2000/svg"
   xmlns:svg="http://www.w3.org/2000/svg"
   xmlns:rdf="http://www.w3.org/1999/02/22-rdf-syntax-ns#"
   xmlns:cc="http://creativecommons.org/ns#"
   xmlns:dc="http://purl.org/dc/elements/1.1/">
  <sodipodi:namedview
     id="namedview270"
     pagecolor="#ffffff"
     bordercolor="#999999"
     borderopacity="1"
     inkscape:pageshadow="0"
     inkscape:pageopacity="0"
     inkscape:pagecheckerboard="0"
     showgrid="false"
     inkscape:zoom="1.4375"
     inkscape:cx="600"
     inkscape:cy="299.82609"
     inkscape:window-width="1920"
     inkscape:window-height="1061"
     inkscape:window-x="0"
     inkscape:window-y="19"
     inkscape:window-maximized="1"
     inkscape:current-layer="svg8" />
  <defs
     id="defs2" />
  <metadata
     id="metadata5">
    <rdf:RDF>
      <cc:Work
         rdf:about="">
        <dc:format>image/svg+xml</dc:format>
        <dc:type
           rdf:resource="http://purl.org/dc/dcmitype/StillImage" />
      </cc:Work>
    </rdf:RDF>
  </metadata>
  <g
     id="layer1"
     transform="translate(0,-138.25001)">
    <path
       style="fill:#e6cfc4;fill-opacity:1;stroke:#e6cfc4;stroke-width:0.264583px;stroke-linecap:butt;stroke-linejoin:miter;stroke-opacity:1"
       d="m 4.3668057,203.79232 c 5.0079393,-2.55082 10.1269103,-5.07244 14.4330593,-8.67063 2.16854,-1.81202 4.426111,-3.56804 6.987054,-4.79404 1.861934,-0.89136 3.921711,-1.47266 6.001,-1.35377 1.137362,0.065 2.286569,0.28709 3.308011,0.79307 1.013447,0.50202 2.173071,0.65427 3.292086,0.53104 2.185639,-0.2407 4.191822,-1.30103 6.388849,-1.48262 0.846673,-0.07 1.672145,0.40316 2.516166,0.29005 3.229062,-0.43273 6.497313,-0.19162 9.725018,0.12519 2.532872,0.24861 5.088051,0.24857 7.61325,0.5845 3.010175,0.40045 5.864927,1.50317 8.648793,2.67079 3.032359,1.27184 6.05768,2.64508 9.294144,3.31683 0.70675,0.14669 1.442464,0.14146 2.139148,0.33053 1.614396,0.43813 3.275827,0.66131 4.916608,0.97449 1.800864,0.34374 3.622946,0.71536 5.292657,1.49625 1.08692,0.50833 2.130642,1.24016 2.724224,2.3111 0.310404,0.56003 0.963989,1.38746 0.506062,1.83281 -1.197511,1.16461 -2.728692,1.94733 -4.340252,2.3613 -2.218409,0.56986 -4.528202,0.549 -6.801955,0.53477 -1.931177,-0.0121 -3.85674,0.11386 -5.789047,0.25689 -8.155179,0.60365 -16.295387,1.93578 -24.471465,1.72795 -8.775341,-0.22306 -17.516546,-1.39002 -26.303712,-1.17405 -2.260162,0.0556 -4.519523,0.18553 -6.766456,0.44419 -5.09595,0.58662 -10.147475,1.65242 -15.2902288,1.76168 -1.0684444,0.0227 -2.1770738,0.22543 -3.2043993,-0.0694 -0.5137152,-0.14744 -1.0535895,-0.32508 -1.4387647,-0.71633 -0.2727353,-0.27704 -0.3128092,-0.69916 -0.2136725,-1.06155 0.2190944,-0.80088 0.7719042,-1.48338 0.8893109,-2.31584 0.033176,-0.23523 0.020827,-0.47913 -0.055488,-0.70518 z"
       id="path201" />
    <path
       style="fill:#eacec0;fill-opacity:1;stroke:#eacec0;stroke-width:0.264583px;stroke-linecap:butt;stroke-linejoin:miter;stroke-opacity:1"
       d="m 61.922091,201.37436 c 4.118425,-1.55961 7.867179,-3.90469 11.792136,-5.87093 2.997197,-1.50147 6.151951,-2.81168 9.498667,-3.25589 1.892654,-0.25121 3.799331,-0.0171 5.700128,0.17278 7.564359,0.7558 15.468508,2.56552 22.772608,0.48111 2.59287,-0.73994 5.26199,-1.35331 7.97504,-1.31166 2.08076,0.0319 4.13658,0.59022 5.9843,1.56411 0.36526,0.19252 0.67111,0.50368 1.05536,0.64596 1.9041,0.70506 3.97066,0.74137 5.97492,0.63322 2.47652,-0.13363 4.96564,-0.50329 7.44399,-0.18491 1.57601,0.20246 2.983,0.97871 4.4075,1.69633 3.41175,1.71873 7.14084,2.6639 10.85538,3.47111 3.77178,0.81965 7.46687,1.93287 11.23658,2.8079 1.0177,0.23623 2.0569,0.64093 2.76844,1.44063 0.53075,0.59651 0.73685,1.43493 0.61227,2.21791 -0.18478,1.16137 -0.88075,2.18191 -1.72172,2.97447 -1.08849,1.02583 -2.53727,1.5081 -3.97783,1.942 -3.66893,1.1051 -7.53055,1.36993 -11.34403,1.32524 -2.57505,-0.0302 -5.19394,0.16229 -7.71501,-0.35905 -6.96659,-1.44065 -14.10901,-1.71687 -21.20361,-1.68486 -7.5676,0.0341 -15.13669,-0.2103 -22.70391,0.0867 -6.225549,0.24431 -12.422233,-0.54878 -18.613322,-1.07078 -3.082052,-0.25986 -6.213123,0.074 -9.268152,-0.41937 -1.574763,-0.25434 -3.170664,-0.33354 -4.755082,-0.50686 -1.826517,-0.1998 -3.679928,-0.41276 -5.409692,-1.05973 -0.979909,-0.36651 -1.969585,-0.89093 -2.566375,-1.78254 -0.339952,-0.50789 -0.938201,-1.32863 -0.483445,-1.73317 0.523852,-0.46601 1.227404,-0.76612 1.575072,-1.40297 0.135316,-0.24787 0.169501,-0.54206 0.109787,-0.81671 z"
       id="path298" />
    <path
       style="fill:#eacec0;fill-opacity:1;stroke:#eacec0;stroke-width:0.264583px;stroke-linecap:butt;stroke-linejoin:miter;stroke-opacity:1"
       d="m 217.58019,197.02646 c 7.05862,-0.66009 13.88995,-2.73633 20.93085,-3.52012 3.69475,-0.4113 7.46332,-0.42299 11.11952,0.31578 1.02871,0.20786 2.01428,0.99697 3.04444,0.79627 4.78297,-0.93186 9.74267,-1.06892 14.54518,-0.18367 4.34018,0.80003 8.50869,2.47292 12.22877,4.84446 1.35022,0.86076 2.27655,2.71441 3.87305,2.83593 1.70371,0.12968 3.34667,0.92658 4.51221,2.16721 0.5335,0.56787 1.00245,1.24053 1.16363,2.01591 0.0962,0.46294 0.009,0.98669 -0.33138,1.33471 -0.40976,0.41866 -1.01539,0.56135 -1.57989,0.60049 -0.92132,0.0639 -1.82307,-0.20943 -2.73742,-0.2955 -22.34701,-2.10353 -44.5638,-5.74621 -66.99561,-6.76392 -0.57506,-0.0261 -1.1418,-0.0665 -1.68773,-0.27828 -0.44938,-0.17433 -0.91563,-0.35057 -1.28513,-0.6702 -0.15345,-0.13274 -0.27993,-0.35082 -0.18879,-0.55404 0.12315,-0.27461 0.39355,-0.44348 0.64343,-0.58854 0.76222,-0.44248 1.63495,-0.68197 2.3564,-1.1914 0.19957,-0.14092 0.43842,-0.30699 0.47279,-0.56619 0.0141,-0.10642 -0.024,-0.21252 -0.0843,-0.2989 z"
       id="path434" />
    <path
       style="fill:#cdb4a6;fill-opacity:1;stroke:#cdb4a6;stroke-width:0.264583px;stroke-linecap:butt;stroke-linejoin:miter;stroke-opacity:1"
       d="m 122.33666,202.1064 c 9.20772,-3.00958 18.88753,-4.17069 28.1426,-7.0146 6.64324,-2.04134 13.70131,-2.465 20.25694,-4.7747 4.05491,-1.42864 8.17388,-2.8061 12.46208,-3.31582 3.13006,-0.37206 6.37368,-0.21536 9.36039,0.85924 0.73992,0.26622 1.37099,0.88339 2.15388,0.95714 3.88988,0.36644 7.82335,0.18633 11.68972,0.81665 1.47466,0.24041 2.85901,1.42795 4.32771,1.14443 1.99011,-0.38418 4.06624,-0.22891 5.9983,0.37587 2.657,0.83171 4.99815,2.37984 7.38645,3.76674 1.28426,0.74578 2.57051,1.51769 3.96937,2.02358 4.1268,1.49243 8.51371,2.19551 12.53804,3.98349 2.0277,0.90089 6.63761,1.86172 5.45838,3.75368 -0.71073,1.1403 -1.90329,1.89637 -3.16368,2.30078 -1.84237,0.59115 -3.80202,0.65045 -5.72059,0.62024 -2.7673,-0.0436 -5.52456,-0.35103 -8.29439,-0.32664 -0.53257,0.005 -1.06169,0.096 -1.59296,0.0989 -7.3317,0.0401 -14.58737,-1.14246 -21.85781,-1.92218 -3.81315,-0.40894 -7.64756,-0.5289 -11.48335,-0.6406 -8.3382,-0.24282 -16.65341,0.75914 -24.86729,2.10577 -2.58408,0.42365 -5.12365,1.22176 -7.73917,1.34725 -8.51052,0.40832 -17.02974,1.23511 -25.55534,0.75624 -3.81051,-0.21403 -7.73435,-0.28842 -11.3312,-1.57359 -1.07015,-0.38237 -2.01742,-1.13637 -2.59172,-2.12292 -0.4109,-0.70586 -0.52259,-1.6059 -0.16949,-2.36343 0.15009,-0.322 0.3695,-0.60822 0.62313,-0.8555 z"
       id="path705" />
    <path
       style="fill:#b2c071;fill-opacity:1;stroke:#b2c071;stroke-width:0.264583px;stroke-linecap:butt;stroke-linejoin:miter;stroke-opacity:1"
       d="m 2.3702411,205.70007 c 5.1010832,-0.4594 9.9707069,-2.17537 14.7405159,-3.94585 5.035375,-1.86905 10.110715,-3.78174 15.458072,-4.56286 1.036792,-0.15145 2.096577,-0.1123 3.1276,-0.2848 7.542296,-1.26188 15.221914,-1.09251 22.836489,-0.85375 4.757105,0.14916 9.542033,0.68777 14.277387,0.18868 15.157238,-1.59752 30.436395,-1.3724 45.635375,-0.6373 2.28036,0.11029 4.56333,0.18317 6.83488,0.43571 9.60014,1.06729 18.88355,3.84389 28.28857,5.91924 3.94957,0.87153 7.99978,1.20139 11.95541,2.05143 3.2228,0.69256 6.43889,1.51317 9.48027,2.79422 1.61237,0.67914 3.25052,1.42295 4.54775,2.62209 0.66778,0.61729 1.26709,1.48082 1.14444,2.43305 -0.13236,1.02765 -0.71373,2.27508 -1.6906,2.43003 -13.20976,2.09531 -26.07351,6.2361 -39.36062,7.71907 -17.79742,1.98637 -35.77371,2.26476 -53.471907,5.13509 -1.796808,0.29141 -3.590919,0.59305 -5.394138,0.84628 -21.253484,2.98467 -43.192722,2.13075 -63.919917,7.69779 -1.586381,0.42608 -3.250516,0.47438 -4.880558,0.39255 -1.907918,-0.0958 -3.8608213,-0.24353 -5.6503263,-0.93653 -0.6060542,-0.2347 -1.2651853,-0.4965 -1.6562122,-1.0462 -0.2787837,-0.39191 -0.075039,-0.90009 0.2365205,-1.20619 0.7386743,-0.72572 1.71615,-1.14468 2.6674649,-1.50864 0.7434731,-0.28444 1.4973419,-0.50689 2.291108,-0.63694 1.3232891,-0.2168 2.6987701,-0.51689 3.8010371,-1.32775 0.670911,-0.49354 1.081195,-1.30918 1.059755,-2.14604 -0.03163,-1.23479 -0.598417,-2.37655 -1.197023,-3.42701 -0.944243,-1.657 -4.2823129,-3.35313 -3.068899,-4.82316 0.777996,-0.94253 1.510599,-2.07214 1.485678,-3.34106 -0.02231,-1.13608 -0.759996,-2.10234 -1.581656,-2.81866 -2.0099382,-1.75226 -4.5629426,-2.76931 -6.4896234,-4.62529 -0.7152138,-0.68897 -1.3289311,-1.54084 -1.5068425,-2.5372 z"
       id="path810" />
    <path
       style="fill:#cdbbad;fill-opacity:1;stroke:#cdbbad;stroke-width:0.264583px;stroke-linecap:butt;stroke-linejoin:miter;stroke-opacity:1"
       d="m 126.96635,174.78838 c 0.18341,0.0221 0.36334,0.10655 0.47958,0.25364 0.14279,0.18069 0.19454,0.41394 0.21691,0.63812 0.0525,0.52565 -0.0316,1.05431 0.014,1.57997 0.0124,0.14307 0.0839,0.2773 0.0867,0.42154 0.06,3.09039 -0.13684,6.18241 0.0261,9.27166 0.0169,0.32084 0.0506,0.64069 0.0655,0.96156 0.093,2.00256 0.54344,4.03918 0.18187,6.01088 -0.069,0.37605 -0.0505,0.7602 -0.0517,1.14051 -0.001,0.35561 -0.007,0.71803 -0.11165,1.06112 -0.0722,0.23675 -0.16525,0.54065 -0.40453,0.61097 -0.15749,0.0463 -0.33381,0.0761 -0.49098,0.0119 -0.13287,-0.0543 -0.2161,-0.18474 -0.25504,-0.31789 -0.0665,-0.22743 -0.0599,-0.46821 -0.0443,-0.70215 0.0244,-0.36427 0.0941,-0.72377 0.12048,-1.08778 0.007,-0.0968 0.006,-0.19361 0.0105,-0.29062 0.0921,-1.80158 0.0819,-3.60592 0.11385,-5.40905 0.0356,-2.0111 -0.29753,-4.01627 -0.22791,-6.0245 0.055,-1.5865 0.24973,-3.16799 0.2102,-4.7577 -0.005,-0.19386 -0.0166,-0.38733 -0.0186,-0.58133 -0.01,-0.9307 -0.009,-1.86342 0.079,-2.79088 z"
       id="path2963" />
    <path
       style="fill:#95ae4d;fill-opacity:1;stroke:#95ae4d;stroke-width:0.264583px;stroke-linecap:butt;stroke-linejoin:miter;stroke-opacity:1"
       d="m 69.16888,212.19972 c 23.259072,-7.42897 47.7936,-9.30691 72.19282,-10.0249 21.08788,-0.62055 42.16053,-1.42504 63.22665,-3.04938 1.66315,-0.12824 3.34215,0.0374 5.00387,0.16302 11.74456,0.8878 23.14448,4.01376 34.59665,6.5709 9.59974,2.14351 19.39302,3.7948 29.27095,3.56105 7.97669,-0.18876 16.03159,-0.44948 23.92055,0.98041 3.75037,0.67976 7.19909,2.45913 10.91264,3.33314 0.96963,0.22821 1.99692,0.44743 2.81161,1.06687 0.49882,0.37927 0.33833,1.07757 -0.0272,1.50225 -0.86518,1.00515 -2.03523,1.67679 -3.126,2.4048 -1.37291,0.91631 -2.8421,1.75365 -3.95411,2.99503 -0.46407,0.51806 -0.8688,1.29875 -0.49059,1.96901 0.49574,0.87855 1.51828,1.24206 2.38395,1.65768 0.88153,0.42324 1.84854,0.45992 2.4711,1.40668 0.93937,1.42855 1.85067,3.01039 1.91075,4.76684 0.0391,1.1428 -0.61384,2.21734 -1.56109,2.83143 -1.58777,1.02933 -3.51471,1.34804 -5.36364,1.50134 -4.37971,0.36313 -8.77732,-0.0131 -13.13661,-0.43963 -1.78167,-0.17434 -3.57119,-0.25708 -5.3531,-0.42154 -23.88095,-2.20413 -47.86908,-1.84626 -71.81796,-2.85249 -19.57409,-0.82242 -39.17223,1.22506 -58.73444,0.45033 -20.56394,-0.8144 -41.17489,1.08098 -61.712138,-0.65333 -8.033321,-0.67839 -15.761213,-4.59166 -23.813739,-4.07983 -2.495223,0.1586 -5.141265,-0.2033 -7.260892,-1.61745 -1.28855,-0.85968 -2.305817,-2.27779 -2.322529,-3.87549 -0.0175,-1.67298 1.0414,-3.1414 2.281419,-4.17269 1.310049,-1.08953 3.201068,-1.27914 4.464307,-2.40084 0.676489,-0.60069 1.531446,-1.04732 2.034853,-1.79734 0.39731,-0.59195 0.794619,-1.18391 1.191929,-1.77587 z"
       id="path954" />
    <path
       style="fill:#8ca644;fill-opacity:1;stroke:#8ca644;stroke-width:0.264583px;stroke-linecap:butt;stroke-linejoin:miter;stroke-opacity:1"
       d="m 210.1855,204.61309 c 2.85931,0.27689 5.70946,-0.26349 8.50362,-0.80696 1.60687,-0.31254 3.22467,-0.56595 4.85039,-0.75704 1.93523,-0.22747 3.83855,-0.64997 5.74787,-1.02767 4.06852,-0.80484 8.17814,-1.4272 12.20326,-2.42651 1.03525,-0.25702 2.02233,-0.66657 3.0669,-0.90207 1.24527,-0.28075 2.52586,-0.38897 3.7635,-0.69756 0.8304,-0.20705 1.64324,-0.47484 2.4924,-0.61483 3.04101,-0.50133 6.1479,-0.51092 9.17066,-1.12374 0.99622,-0.20197 2.04703,-0.24243 2.98227,-0.63925 0.41777,-0.17726 0.85264,-0.27685 1.3108,-0.31041 1.65322,-0.1211 3.30118,-0.31767 4.92721,-0.65695 1.08092,-0.22554 2.19817,-0.16456 3.28641,-0.0374 1.70959,0.19985 3.38712,0.59641 5.08751,0.85763 1.65246,0.25386 3.29957,0.53883 4.94341,0.84501 3.25122,0.60557 6.58624,1.07056 9.62098,2.44248 1.93245,0.87361 3.90658,1.7063 5.65991,2.90834 2.19156,1.50248 4.11797,3.34192 6.06553,5.13684 0.73811,0.68026 1.49859,1.40001 1.90265,2.33917 0.20742,0.48211 0.17571,1.0726 -0.17915,1.49084 -0.7216,0.85048 -1.75083,1.38984 -2.43031,2.27654 -0.40593,0.52973 -0.5408,1.26885 -0.26446,1.88992 0.40162,0.90264 1.22621,1.52975 2.0564,2.01227 0.75055,0.43623 1.55035,0.77825 2.30056,1.21728 2.62873,1.53836 5.01818,3.59059 6.6435,6.18472 0.68429,1.09218 1.39083,2.25062 1.54683,3.53342 0.12651,1.04033 0.0742,2.09528 -0.023,3.13476 -0.0783,0.83798 -0.0589,1.71115 -0.35439,2.50267 -0.40033,1.07247 -1.08158,2.00452 -1.5277,3.05926 -0.45421,1.07387 -0.86698,2.22154 -1.73205,3.04914 -0.43356,0.41478 -1.0154,0.59684 -1.58002,0.75691 -1.97461,0.55982 -4.00791,0.99124 -6.06383,1.02261 -2.43789,0.0372 -4.76978,-0.80712 -7.00437,-1.6873 -1.29501,-0.51009 -2.6157,-0.94852 -3.94343,-1.36621 -1.11127,-0.34959 -2.22571,-0.72616 -3.22754,-1.33316 -0.61983,-0.37555 -1.30879,-0.60329 -2.00068,-0.80786 -1.19537,-0.35343 -2.40378,-0.66324 -3.57519,-1.09654 -3.05525,-1.13012 -6.04757,-2.53765 -9.28492,-3.0708 -2.65662,-0.43751 -5.35698,-0.40471 -8.03001,-0.69984 -8.25709,-0.91167 -16.58796,-1.28481 -24.88923,-0.80736 -3.3633,0.19344 -6.73164,0.40628 -10.10262,0.27852 -2.38488,-0.0904 -4.76898,-0.19755 -7.15532,-0.25149 -6.7116,-0.15171 -13.4461,-0.21483 -20.13265,0.45883 -2.54535,0.25644 -5.08866,0.56434 -7.65266,0.59356 -3.76957,0.043 -7.52563,0.40795 -11.27518,0.76548 -3.12609,0.29808 -6.21735,0.86824 -9.3427,1.18155 -2.39998,0.24059 -4.81963,0.3968 -7.17504,0.94608 -1.27218,0.29667 -2.56479,0.48499 -3.85537,0.68027 -4.21052,0.6371 -8.437,1.20896 -12.69373,1.43301 -1.13463,0.0597 -2.26622,0.15293 -3.39916,0.24407 -1.5,0.12067 -3.03417,0.25532 -4.51499,-0.0632 -0.6859,-0.14752 -1.5052,-0.38546 -1.80792,-1.07635 -0.27065,-0.6177 -0.0468,-1.32475 0.27081,-1.87549 0.65251,-1.1313 1.78445,-1.88249 2.92329,-2.45778 2.5172,-1.27158 5.28204,-1.90362 7.98606,-2.6364 2.7332,-0.74069 5.54116,-1.14383 8.30724,-1.7349 3.76406,-0.80432 7.41302,-2.05038 11.17023,-2.89129 3.2676,-0.73133 6.50857,-1.57587 9.78454,-2.2723 3.08603,-0.65605 6.17817,-1.36221 9.11595,-2.53997 2.42187,-0.97093 4.87334,-1.94478 7.06399,-3.3589 0.57728,-0.37265 1.05371,-0.87136 1.56648,-1.32505 0.50192,-0.44409 1.1774,-0.77241 1.4697,-1.37637 0.15136,-0.31275 0.30063,-0.62099 0.48744,-0.91945 0.78894,-1.2605 1.5884,-2.53684 2.68948,-3.55973 1.42953,-1.32802 3.14961,-2.38345 4.24983,-4.03313 z"
       id="path1064" />
    <path
       style="fill:#77993f;fill-opacity:1;stroke:#77993f;stroke-width:0.264583px;stroke-linecap:butt;stroke-linejoin:miter;stroke-opacity:1"
       d="m 7.5958185,227.81667 c 7.8424535,0.57206 15.6917755,-0.34911 23.4488055,-1.44079 7.416164,-1.04371 14.91226,-1.38149 22.332592,-2.48874 19.719645,-2.94254 39.550736,-5.68682 58.807204,-10.90218 6.77744,-1.83558 13.59938,-3.719 20.62351,-4.29916 3.70871,-0.30632 7.69873,-1.04415 11.13352,0.39941 3.41285,1.43434 7.12939,1.84845 10.77814,2.23717 3.65651,0.38955 7.38379,0.74442 10.83024,2.11473 0.73974,0.29412 1.7772,0.32309 2.15608,1.02334 0.6501,1.20151 1.23366,2.55621 1.06277,3.95486 -0.13061,1.06897 -0.87881,1.9508 -1.76152,2.51451 -1.47847,0.94418 -3.19565,1.40457 -4.86919,1.86817 -2.41718,0.6696 -4.91008,1.20362 -7.14343,2.38659 -1.35893,0.7198 -3.3364,1.74903 -3.12016,3.31072 0.23705,1.71195 -0.0168,3.54574 -1.0012,5.00205 -1.10486,1.63457 -2.88904,2.65538 -4.69693,3.33494 -3.11082,1.16932 -6.42478,1.61087 -9.68565,2.15285 -1.36389,0.22669 -2.7098,0.54622 -4.06956,0.80271 -11.01864,2.07848 -22.25424,2.43266 -33.423509,3.01808 -8.027664,0.42076 -16.012539,1.35261 -23.997501,2.35927 -13.761558,1.73492 -27.217394,7.78301 -41.04341,6.75176 -3.377223,-0.2519 -6.753065,0.16142 -10.121562,0.36095 -3.099964,0.18362 -6.262615,0.28915 -9.303819,-0.45581 -2.166927,-0.5308 -4.213412,-1.65186 -5.696512,-3.34174 -0.4826113,-0.5499 -0.5814445,-1.54382 -1.2723616,-1.78372 -1.8973068,-0.65877 -3.3646402,-2.21142 -4.2477064,-3.97925 -1.2590572,-2.52053 -1.6197627,-5.4632 -1.1106991,-8.22442 0.3884538,-2.10702 1.3600552,-4.20161 3.0862403,-5.5373 0.6826867,-0.52825 1.4719176,-0.91614 2.3056183,-1.139 z"
       id="path1110" />
    <path
       style="fill:#9cc139;fill-opacity:1;stroke:#9cc139;stroke-width:0.264583px;stroke-linecap:butt;stroke-linejoin:miter;stroke-opacity:1"
       d="m 312.10889,218.18917 c 0.96491,1.90312 1.09178,4.13521 0.63649,6.19846 -0.76817,3.4811 -2.62204,6.57351 -3.90181,9.8709 -0.92053,2.3718 -1.51606,4.98366 -0.97795,7.52356 0.42777,2.01908 2.74366,3.28297 2.95766,5.31605 0.20218,1.92081 0.12935,4.02432 -0.97936,5.68439 -0.98364,1.47281 -2.73437,2.19837 -4.43036,2.44526 -2.86109,0.4165 -5.7618,0.0135 -8.59024,-0.45106 -4.29987,-0.70618 -8.52842,-1.87489 -12.8755,-2.26176 -1.20995,-0.10768 -2.42666,0.0902 -3.64209,0.005 -24.97776,-1.74374 -50.06654,-1.35498 -75.04263,0.38482 -19.96126,1.39047 -39.96408,-0.39661 -59.98185,-0.19278 -10.97469,0.11175 -22.02616,0.22594 -32.88954,-1.57109 -6.07355,-1.00469 -11.61732,-6.16196 -17.697467,-5.14446 -2.797111,0.46809 -5.694018,-0.0278 -8.305128,-1.06446 -2.259737,-0.89712 -4.448129,-2.19069 -5.972401,-4.12421 -0.957715,-1.21485 -1.516607,-2.83434 -1.142903,-4.37783 0.447635,-1.84884 1.971017,-3.15224 3.401235,-4.31005 0.997809,-0.80776 2.272712,-1.08391 3.462272,-1.4885 15.139822,-5.14927 31.060492,-7.62666 46.985232,-8.68739 2.47055,-0.16456 4.95097,-0.16845 7.41835,-0.36493 17.84964,-1.42141 35.87147,0.55667 53.63819,-1.83359 1.50778,-0.20285 3.02271,-0.28789 4.54112,-0.37929 14.61299,-0.87963 29.04157,-3.94331 43.71024,-4.04343 6.99623,-0.0478 13.90658,1.18173 20.78919,2.51939 8.85445,1.72089 17.7319,3.67649 26.7847,3.90631 6.25481,0.15879 12.32603,-1.52171 18.46566,-2.85175 1.02229,-0.22146 2.04692,-0.42858 3.07756,-0.60941 0.18711,-0.0328 0.37422,-0.0657 0.56133,-0.0985 z"
       id="path1224" />
    <path
       style="fill:#8bb134;fill-opacity:1;stroke:#8bb134;stroke-width:0.264583px;stroke-linecap:butt;stroke-linejoin:miter;stroke-opacity:1"
       d="m 8.2120426,255.06989 c -0.7970276,-6.24368 0.5445053,-12.85186 4.2104854,-18.0342 2.592531,-3.66488 6.489466,-6.36348 10.842087,-7.51277 2.258634,-0.59638 4.609325,-0.63426 6.936555,-0.60054 10.958336,0.15879 21.960507,1.13971 32.890422,-0.1152 2.442126,-0.28039 4.825763,-0.96846 7.2732,-1.20115 16.248572,-1.54486 32.568378,-2.602 48.660628,-5.56021 1.36301,-0.25056 2.6951,-0.68802 4.07048,-0.84502 12.54634,-1.43217 25.13497,-3.24901 37.79698,-2.7109 5.8262,0.2476 11.51189,1.65879 17.2862,2.51005 13.50435,1.99084 27.03948,4.47274 40.72924,4.33284 2.07842,-0.0212 4.15506,0.002 6.2327,0.0954 20.43522,0.92331 40.55273,5.52474 61.03923,5.70231 5.50191,0.0477 11.56982,1.53098 16.46551,-0.98505 1.86316,-0.95753 3.95867,-1.8348 6.10023,-1.51583 1.56179,0.23262 2.80254,1.41807 3.4832,2.79375 1.19157,2.40826 1.47809,5.13978 1.62524,7.78502 0.3167,5.69296 -0.34132,11.38872 -0.1175,17.08058 0.0339,0.86109 0.3708,1.7264 0.22002,2.57542 -0.36461,2.05313 -1.11897,4.26111 -2.91412,5.49156 -1.70937,1.17166 -3.92276,1.13608 -5.8725,0.74457 -3.68225,-0.73939 -7.10385,-2.35438 -10.55002,-3.79129 -3.33953,-1.39245 -6.69412,-2.93895 -10.30505,-3.43852 -1.08573,-0.15021 -2.20382,0.2244 -3.28077,-2.9e-4 -19.95935,-4.16425 -40.44069,-4.91713 -60.77146,-4.65359 -27.0299,0.35038 -54.1151,2.80678 -81.10678,0.58965 -9.4093,-0.77289 -18.85782,-0.96092 -28.29535,-0.91 -34.228567,0.18469 -68.409809,4.0112 -102.6488574,2.17343 z"
       id="path1462" />
    <path
       style="fill:#7c971c;fill-opacity:1;stroke:#7c971c;stroke-width:0.264583px;stroke-linecap:butt;stroke-linejoin:miter;stroke-opacity:1"
       d="m 132.41807,242.66951 c 13.00684,-1.5915 26.15285,-0.89715 39.17083,0.17946 12.2464,1.0128 24.57927,4.01212 36.78448,2.48356 8.05234,-1.00846 16.18649,0.26338 24.24731,-0.63078 4.2592,-0.47246 8.35667,-1.94585 12.08687,-4.12493 0.90422,-0.52822 1.62465,-1.2973 2.63831,-1.66414 4.61,-1.66835 9.61921,-1.89891 14.45543,-1.33979 8.14125,0.94122 15.9131,3.68343 23.91269,5.33627 2.18866,0.45221 4.41384,0.67646 6.62534,0.99205 4.09476,0.58434 8.08918,1.90718 11.71907,3.88008 2.88955,1.57051 5.66226,3.55796 7.55248,6.29645 1.28711,1.86472 1.95173,4.20367 1.56437,6.46629 -0.42212,2.46563 -1.16498,6.01951 -3.59574,6.38355 -4.2569,0.63753 -8.16589,2.59991 -11.81867,4.79661 -4.18506,2.5168 -8.15786,5.48344 -12.75326,7.23304 -1.42939,0.54421 -2.89855,1.25989 -4.42704,1.1775 -30.207,-1.62824 -60.08148,-7.13077 -90.33713,-8.1185 -6.58547,-0.21499 -13.17494,-0.13052 -19.76267,-0.19698 -26.22027,-0.26451 -53.01197,-6.5986 -78.656459,-1.11093 -1.875411,0.40132 -3.815818,0.39025 -5.717649,0.24998 -2.280379,-0.16819 -4.619531,-0.35963 -6.747258,-1.22628 -0.709066,-0.28881 -1.547647,-0.58271 -1.902906,-1.30522 -0.283299,-0.57616 0.170561,-1.16396 0.610802,-1.50391 1.247002,-0.96293 2.708029,-1.71046 4.241198,-1.98206 7.211403,-1.27749 14.587392,-1.87489 21.584092,-4.1597 4.31819,-1.41013 8.46995,-3.60958 11.63328,-6.93025 1.4986,-1.57314 2.30915,-3.66746 3.69924,-5.32927 2.15521,-2.57649 4.98887,-4.68987 8.2578,-5.58459 1.60129,-0.43828 3.29629,-0.54921 4.93519,-0.26751 z"
       id="path1849" />
    <path
       style="fill:#5e8824;fill-opacity:1;stroke:#5e8824;stroke-width:0.264583px;stroke-linecap:butt;stroke-linejoin:miter;stroke-opacity:1"
       d="m 5.5992539,243.82304 c 26.6504691,-0.62694 53.3267001,-2.54728 79.9799881,-0.96556 11.018259,0.65387 22.231858,1.02929 32.837018,4.10658 30.95261,8.9815 62.30293,16.99066 94.19178,21.43381 23.67232,3.29832 47.5136,6.0998 71.39417,6.0365 2.70114,-0.007 5.39543,0.44655 7.98207,1.19212 1.64697,0.47472 3.37072,0.91239 4.77728,1.91809 0.40057,0.28641 1.04882,0.78712 0.7382,1.30256 -0.37691,0.62544 -1.15071,0.83874 -1.81084,1.01523 -2.23855,0.59849 -4.56287,0.70839 -6.85191,0.99918 -18.50393,2.35064 -37.22083,1.59392 -55.77422,0.29391 -20.95371,-1.4682 -41.9161,-2.92633 -62.96352,-2.82779 -24.18071,0.11321 -48.40289,-1.42592 -72.549601,0.47007 -5.151075,0.40446 -10.246617,1.37011 -15.401449,1.72853 -23.270438,1.61803 -49.564851,12.00668 -69.911297,0.64688 -2.90087,-1.61961 -5.3460183,-4.11736 -6.6730937,-7.19041 -1.6116927,-3.73212 -1.6647606,-7.90248 -1.3717722,-11.89251 0.3853727,-5.24816 1.5695473,-10.43129 1.5467444,-15.70688 -0.0037,-0.855 -0.043869,-1.71044 -0.1395476,-2.56031 z"
       id="path1974" />
    <path
       style="fill:#cdbbad;fill-opacity:1;stroke:#cdbbad;stroke-width:0.264583px;stroke-linecap:butt;stroke-linejoin:miter;stroke-opacity:1"
       d="m 112.16466,191.01535 c 0.39999,0.25685 0.69313,0.65521 0.86931,1.09301 0.24521,0.60935 0.31182,1.27066 0.35787,1.92031 0.0425,0.6001 0.16903,1.19731 0.14432,1.79936 -0.0834,2.03171 -0.42979,4.05182 -0.36117,6.0887 0.007,0.20541 0.008,0.40879 -0.0111,0.61483 -0.40522,4.37329 0.19757,8.78072 -0.14484,13.16335 -0.1713,2.19254 -0.0103,4.39265 0.17835,6.57841 0.0403,0.46627 0.26159,0.95214 0.12166,1.39873 -0.1412,0.45066 -0.13353,0.93072 -0.10904,1.3971 0.0425,0.80894 0.18726,1.61479 0.14519,2.4262 -0.0206,0.39654 -0.0853,0.81082 -0.31478,1.14572 -0.18464,0.26951 -0.48931,0.44997 -0.80905,0.48799 -0.14118,0.0168 -0.3764,0.1364 -0.43839,0.0189 -0.28249,-0.53552 -0.35998,-1.15064 -0.37267,-1.74804 -0.0233,-1.09745 0.14344,-2.19175 0.0661,-3.2899 -0.01,-0.13612 -0.0441,-0.27021 -0.048,-0.40622 -0.0695,-2.43204 0.21907,-4.86652 0.0652,-7.29953 -0.20271,-3.20571 -0.23482,-6.41336 -0.31039,-9.62715 -0.088,-3.74236 -0.73731,-7.62979 0.31935,-11.21923 0.10278,-0.34914 0.0796,-0.71965 0.0442,-1.07698 -0.0698,-0.70515 -0.2391,-1.40267 -0.22862,-2.11381 0.005,-0.33719 0.0504,-0.69487 0.25216,-0.9763 0.13897,-0.19386 0.3554,-0.31904 0.58433,-0.37543 z"
       id="path2175" />
    <path
       style="fill:#81776b;fill-opacity:1;stroke:#81776b;stroke-width:0.264583px;stroke-linecap:butt;stroke-linejoin:miter;stroke-opacity:1"
       d="m 109.90927,190.39422 c 0.0151,0.31758 0.044,0.63661 0.1243,0.94514 0.0573,0.22025 0.13041,0.44287 0.26526,0.62685 0.0613,0.0836 0.14908,0.14417 0.24361,0.18481 0.18181,0.0782 0.38119,0.10136 0.56334,0.17989 0.12303,0.053 0.26011,0.0688 0.39286,0.0544 0.18021,-0.0195 0.35126,-0.0853 0.5156,-0.15862 0.10322,-0.046 0.20623,-0.0925 0.30866,-0.14031 0.25556,-0.1192 0.50033,-0.26413 0.76913,-0.35295 0.0878,-0.029 0.17701,-0.0651 0.26956,-0.0646 0.26366,0.001 0.5225,0.0576 0.78041,0.10617 0.11676,0.022 0.23411,0.0707 0.35202,0.0558 0.0724,-0.009 0.14227,-0.044 0.18867,-0.10127 0.0571,-0.0704 0.0787,-0.16317 0.0798,-0.25219 0.001,-0.11487 -0.0251,-0.23061 -0.0786,-0.33229 -0.0245,-0.0465 -0.0564,-0.0886 -0.0878,-0.1306 -0.21137,-0.2824 -0.4866,-0.51372 -0.79124,-0.68986 -0.11885,-0.0687 -0.23466,-0.15553 -0.36953,-0.18118 -0.0611,-0.0116 -0.12747,-0.005 -0.18106,0.0289 -0.0639,0.04 -0.10566,0.10537 -0.14307,0.16903 -0.0471,0.0802 -0.0898,0.16412 -0.15341,0.23338 -0.0259,0.0282 -0.0596,0.0462 -0.0909,0.0672 -0.0789,0.0529 -0.16928,0.0949 -0.266,0.0974 -0.0864,0.002 -0.16655,-0.0379 -0.23651,-0.0866 -0.0312,-0.0217 -0.0502,-0.0643 -0.0855,-0.0751 -0.1318,-0.0403 -0.27103,-0.0398 -0.4075,-0.0419 -0.1166,-0.002 -0.23113,-0.0251 -0.34794,-0.0356 -0.27847,-0.0249 -0.54828,-0.11266 -0.82849,-0.12241 -0.0609,-0.002 -0.12285,-0.006 -0.18261,0.006 -0.15765,0.032 -0.31996,0.0585 -0.48082,0.0365 -0.0413,-0.006 -0.0825,-0.0142 -0.12215,-0.0266 z"
       id="path2306" />
    <path
       style="fill:#ddd4cd;fill-opacity:1;stroke:#ddd4cd;stroke-width:0.264583px;stroke-linecap:butt;stroke-linejoin:miter;stroke-opacity:1"
       d="m 118.84452,186.19052 c 0.31069,-0.2706 0.69562,-0.43412 1.07984,-0.57087 0.45505,-0.16196 0.92817,-0.29199 1.34346,-0.5461 0.20185,-0.12351 0.34013,-0.32689 0.53431,-0.46278 0.83459,-0.58407 1.68149,-1.15673 2.58227,-1.63175 1.18596,-0.62541 2.28809,-1.42146 3.53366,-1.92259 0.89841,-0.36146 1.8561,-0.61414 2.67757,-1.12689 0.16535,-0.10321 0.3468,-0.18004 0.53333,-0.23464 0.12575,-0.0368 0.2555,-0.0758 0.38757,-0.0678 0.0449,0.003 0.11038,0.0145 0.11732,0.0665 0.009,0.0639 -0.032,0.1213 -0.068,0.1698 -0.0893,0.12022 -0.20189,0.2197 -0.30881,0.32348 -0.35312,0.34277 -0.78932,0.58062 -1.22239,0.80612 -0.45432,0.23657 -0.95907,0.42779 -1.30751,0.80836 -0.0698,0.0763 -0.16763,0.11279 -0.25602,0.16269 -0.75916,0.42856 -1.42082,1.00151 -2.09957,1.54285 -0.4641,0.37014 -1.04066,0.59604 -1.4619,1.016 -0.54063,0.53899 -1.18611,0.9547 -1.82886,1.35976 -0.59701,0.37623 -1.08975,0.92236 -1.73445,1.21419 -1.25259,0.56701 -2.36217,1.55781 -3.71885,1.78256 -0.49933,0.0827 -0.97109,0.29095 -1.39312,0.56696 -0.5758,0.37658 -0.98652,0.96633 -1.56554,1.3324 -0.12532,0.0792 -0.26565,0.15247 -0.4179,0.15229 -0.0929,-1.1e-4 -0.18317,-0.0513 -0.22872,-0.13296 -0.0687,-0.12309 -0.0632,-0.2734 -0.0299,-0.40617 0.0632,-0.25138 0.24179,-0.48282 0.49021,-0.57023 0.069,-0.0243 0.13651,-0.0403 0.20103,-0.0806 0.33456,-0.2089 0.58379,-0.52502 0.79423,-0.85327 0.27623,-0.43087 0.49681,-0.89995 0.82928,-1.29295 0.21053,-0.24886 0.48188,-0.4454 0.788,-0.56315 0.0933,-0.0359 0.19165,-0.0536 0.28818,-0.0779 0.33568,-0.0847 0.63542,-0.26536 0.9261,-0.4474 0.17555,-0.10994 0.35066,-0.22144 0.53516,-0.31588 z"
       id="path2513" />
    <path
       style="fill:#81776b;fill-opacity:1;stroke:#81776b;stroke-width:0.264583px;stroke-linecap:butt;stroke-linejoin:miter;stroke-opacity:1"
       d="m 126.15293,174.41127 c 0.0919,0.17315 0.23111,0.32166 0.40012,0.42136 0.13302,0.0785 0.28741,0.12856 0.44236,0.11919 0.0531,-0.003 0.10626,-0.01 0.15681,-0.0292 0.0757,-0.0291 0.15867,-0.046 0.23968,-0.0321 0.0638,0.0109 0.12316,0.0452 0.16458,0.0949 0.0237,0.0283 0.0511,0.0533 0.0772,0.0794 0.0755,0.0757 0.15233,0.15227 0.24466,0.2076 0.0656,0.0393 0.14077,0.0647 0.21779,0.0644 0.0451,-1.6e-4 0.0898,-0.009 0.13364,-0.0186 0.15331,-0.0348 0.2937,-0.11532 0.40994,-0.22005 0.14268,-0.12856 0.24945,-0.29232 0.33046,-0.46586 0.0234,-0.0502 0.0396,-0.1034 0.0522,-0.15722 0.0194,-0.0831 0.0297,-0.17091 0.01,-0.25503 -0.0138,-0.059 -0.0461,-0.11493 -0.0953,-0.15077 -0.0906,-0.066 -0.19055,-0.11889 -0.29493,-0.15953 -0.14336,-0.0558 -0.2955,-0.0916 -0.44922,-0.0972 -0.0513,-0.002 -0.1039,0.0117 -0.14495,0.0434 -0.0492,0.038 -0.0796,0.0943 -0.10383,0.15027 -0.0377,0.0871 -0.0559,0.18352 -0.108,0.26336 -0.0146,0.0224 -0.0274,0.0474 -0.0545,0.0585 -0.049,0.02 -0.1042,0.008 -0.15088,-0.0124 -0.0781,-0.0348 -0.14657,-0.0867 -0.21811,-0.13281 -0.0433,-0.0279 -0.093,-0.0433 -0.13918,-0.0659 -0.20359,-0.0998 -0.40657,-0.20416 -0.62383,-0.27153 -0.064,-0.0198 -0.12831,-0.0409 -0.19486,-0.0483 -0.0503,-0.006 -0.10312,0.008 -0.1419,0.0416 -0.0485,0.0417 -0.075,0.1025 -0.0928,0.16256 -0.0234,0.0787 -0.03,0.16092 -0.0396,0.24211 -0.007,0.0563 -0.014,0.11281 -0.0274,0.16778 z"
       id="path3106" />
    <path
       style="fill:#ddd4cd;fill-opacity:1;stroke:#ddd4cd;stroke-width:0.264583px;stroke-linecap:butt;stroke-linejoin:miter;stroke-opacity:1"
       d="m 98.176378,180.31199 c 0.799623,0.13043 1.558233,0.44048 2.272202,0.81559 0.51395,0.27002 1.09929,0.46559 1.49715,0.888 0.62192,0.66031 1.36776,1.18734 2.13153,1.66999 0.82351,0.5204 1.8011,0.85959 2.45906,1.57993 0.65699,0.71928 1.43747,1.31055 2.23086,1.87006 0.48478,0.34187 1.14359,0.51939 1.45544,1.02408 0.22227,0.35972 0.5491,0.64174 0.90281,0.86783 0.54371,0.34754 1.15707,0.5747 1.68278,0.95179 0.24305,0.17434 0.6545,0.34152 0.62303,0.6402 -0.0203,0.19247 -0.0624,0.39528 -0.19038,0.54754 -0.0983,0.11701 -0.25321,0.16979 -0.40271,0.17242 -0.24734,0.004 -0.48704,-0.0706 -0.72019,-0.14464 -0.34716,-0.11026 -0.68967,-0.24873 -1.05336,-0.29393 -0.21202,-0.0263 -0.41865,0.0358 -0.6252,0.10932 -0.0399,0.0142 -0.0752,0.0866 -0.10946,0.0675 -1.05115,-0.58631 -2.02587,-1.30634 -3.1156,-1.82374 -0.12934,-0.0614 -0.26541,-0.10848 -0.39232,-0.17476 -0.95197,-0.49717 -1.79792,-1.17197 -2.58408,-1.89836 -0.8378,-0.7741 -1.55451,-1.67985 -2.44362,-2.39411 -1.35526,-1.08874 -2.860867,-1.97954 -4.171464,-3.1255 -0.464088,-0.40579 -0.735432,-1.05232 -1.289684,-1.32321 -0.39184,-0.19151 -0.72076,-0.52258 -0.886683,-0.92653 -0.07227,-0.17594 -0.120038,-0.37249 -0.07953,-0.56245 0.02468,-0.11572 0.103993,-0.2208 0.216169,-0.2641 0.157968,-0.061 0.333827,-0.029 0.490301,0.0198 0.19616,0.0612 0.372686,0.16903 0.554715,0.26235 0.495584,0.25408 0.912766,0.63867 1.263004,1.06758 0.09975,0.12216 0.194554,0.24833 0.285229,0.37736 z"
       id="path2650" />
    <path
       style="fill:#ddd4cd;fill-opacity:1;stroke:#ddd4cd;stroke-width:0.264583px;stroke-linecap:butt;stroke-linejoin:miter;stroke-opacity:1"
       d="m 112.8918,192.08014 c 0.0712,1.3126 -0.10788,2.63658 -0.50714,3.88807 -0.0521,0.16337 -0.18711,0.3158 -0.16795,0.48621 0.0724,0.64355 0.30002,1.254 0.49532,1.86722 0.17117,0.53745 0.32802,1.09258 0.31561,1.66065 -0.005,0.21475 0.0105,0.4294 0.023,0.6437 0.11712,2.00819 0.41791,3.99729 0.64554,5.99491 0.27161,2.38356 1.21923,4.83487 0.65452,7.16604 -0.0426,0.17594 -0.0615,0.36957 0.008,0.53986 0.0249,0.0611 0.0604,0.13756 0.13078,0.15004 0.0616,0.0109 0.10435,-0.049 0.12415,-0.099 0.0532,-0.13432 0.051,-0.28239 0.0504,-0.42473 -8.7e-4,-0.19162 0.0115,-0.38338 0.0178,-0.57501 0.0889,-2.70903 0.0221,-5.42461 0.25796,-8.12786 0.0194,-0.2226 0.0431,-0.44461 0.0532,-0.66806 0.12227,-2.70041 -0.0339,-5.40604 0.14941,-8.10544 0.0139,-0.2044 0.0433,-0.40775 0.0519,-0.61237 0.0261,-0.62116 -0.0993,-1.23447 -0.22056,-1.84019 -0.11028,-0.55095 -0.26899,-1.11216 -0.20423,-1.67306 0.0238,-0.2058 -0.024,-0.42525 -0.15951,-0.5865 -0.16324,-0.1942 -0.41862,-0.28759 -0.66638,-0.30291 -0.28374,-0.0175 -0.58216,0.0533 -0.80516,0.23519 -0.11977,0.0977 -0.21056,0.23206 -0.2465,0.3832 z"
       id="path2822" />
    <path
       style="fill:#ddd4cd;fill-opacity:1;stroke:#ddd4cd;stroke-width:0.264583px;stroke-linecap:butt;stroke-linejoin:miter;stroke-opacity:1"
       d="m 122.44327,164.27357 c 0.11893,0.34825 0.33622,0.65343 0.58317,0.92271 0.40365,0.44015 0.88792,0.80154 1.26306,1.2687 0.21321,0.26551 0.39045,0.57025 0.45772,0.9059 0.0251,0.12533 0.0903,0.23829 0.14472,0.35297 0.58374,1.22977 1.41831,2.31759 2.03812,3.52762 0.15415,0.30094 0.40791,0.58769 0.41337,0.92587 0.003,0.18646 0.0757,0.36331 0.15877,0.52709 0.19,0.37453 0.45613,0.70563 0.63716,1.08473 0.0697,0.14592 0.13176,0.3025 0.13005,0.46697 -0.001,0.11614 -0.054,0.22892 -0.14023,0.30671 -0.11424,0.10302 -0.29651,0.29723 -0.40922,0.196 -0.23361,-0.2098 -0.41104,-0.4714 -0.59404,-0.7241 -0.19985,-0.27596 -0.4126,-0.54975 -0.68753,-0.75552 -0.0958,-0.0717 -0.22514,-0.098 -0.30635,-0.18586 -0.38312,-0.41459 -0.66317,-0.9158 -0.85915,-1.44315 -0.22271,-0.59927 -0.24554,-1.25169 -0.4279,-1.86274 -0.29932,-1.00298 -0.76272,-1.94877 -1.28849,-2.85094 -0.42916,-0.73639 -1.07495,-1.35837 -1.37082,-2.15735 -0.0968,-0.26132 -0.23531,-0.50435 -0.372,-0.74627 -0.19152,-0.33895 -0.39919,-0.67131 -0.5461,-1.03277 -0.0751,-0.18473 -0.14173,-0.37949 -0.13979,-0.58111 9.7e-4,-0.10101 0.0126,-0.36942 0.0767,-0.29036 0.36516,0.45042 0.63992,0.96442 0.90112,1.4796 0.11246,0.22181 0.22273,0.44473 0.33761,0.6653 z"
       id="path3364" />
    <path
       style="fill:#ddd4cd;fill-opacity:1;stroke:#ddd4cd;stroke-width:0.264583px;stroke-linecap:butt;stroke-linejoin:miter;stroke-opacity:1"
       d="m 128.44528,174.45563 c 0.42613,-0.0636 0.83006,-0.22549 1.21532,-0.41341 0.49068,-0.23934 0.98391,-0.47124 1.46885,-0.7249 0.0555,-0.029 0.11918,-0.0136 0.17914,-0.0123 0.56854,0.0126 1.14066,-0.009 1.70492,0.0751 0.17011,0.0252 0.34148,0.052 0.50461,0.10671 0.48077,0.1613 0.98801,0.22106 1.49185,0.25453 0.53445,0.0355 1.06893,0.0652 1.60299,0.11424 0.58551,0.0538 1.17265,-0.006 1.75786,-0.0327 0.4871,-0.0225 0.98122,-0.0239 1.45938,0.0842 0.24435,0.0553 0.6568,0.0109 0.70411,0.25712 0.0236,0.12271 0.009,0.25614 -0.0592,0.36318 -0.08,0.1254 -0.21429,0.20432 -0.35106,0.25387 -0.21834,0.0791 -0.45229,0.10522 -0.68318,0.10818 -0.27373,0.004 -0.54967,-0.0162 -0.8159,-0.0808 -0.0899,-0.0218 -0.17908,-0.0461 -0.26945,-0.0662 -0.70001,-0.15559 -1.42179,-0.18226 -2.13628,-0.15485 -0.78344,0.0301 -1.56114,0.14746 -2.34418,0.17879 -1.56954,0.0628 -3.26191,-0.4778 -4.71039,0.12969 -0.14144,0.0593 -0.28291,0.12412 -0.43419,0.15295 -0.0752,0.0143 -0.1599,0.024 -0.22901,-0.0161 -0.0637,-0.037 -0.0893,-0.11329 -0.0961,-0.18272 -0.0126,-0.12959 0.0115,-0.25933 0.0379,-0.38573 0,0 0.002,-0.009 0.002,-0.009 0,0 0,5e-5 0,5e-5 z"
       id="path3545" />
    <path
       style="fill:#cdbbad;fill-opacity:1;stroke:#cdbbad;stroke-width:0.264583px;stroke-linecap:butt;stroke-linejoin:miter;stroke-opacity:1"
       d="m 247.06464,176.84525 c 0.26493,0.0595 0.51733,0.20295 0.6756,0.42828 0.18965,0.27 0.24622,0.60812 0.25381,0.93112 0.0134,0.56933 -0.0933,1.13168 -0.17032,1.69347 -0.0531,0.38718 -0.0715,0.77749 -0.0804,1.17028 -0.004,0.19339 -0.0277,0.38733 -0.0403,0.58096 -0.1289,1.97115 0.0217,3.94595 0.18866,5.91 0.0511,0.60142 0.14811,1.2009 0.15068,1.80448 0.01,2.34442 0.24918,4.69233 0.10599,7.03242 -0.14146,2.31181 -0.1979,4.62803 -0.13835,6.94704 0.004,0.15422 0.0311,0.30594 0.0419,0.45944 0.0196,0.2779 -0.0455,0.57307 -0.23245,0.78789 -0.22136,0.25443 -0.59138,0.34394 -0.91473,0.26303 -0.25392,-0.0635 -0.47483,-0.24987 -0.57089,-0.49556 -0.1107,-0.28313 -0.0222,-0.58949 0.0407,-0.87903 0.0377,-0.17365 0.0218,-0.35915 0.026,-0.53812 0.055,-2.30857 0.14049,-4.61643 0.074,-6.92836 -0.006,-0.20156 0.006,-0.40354 0.0104,-0.60525 0.0528,-2.56072 0.13444,-5.1205 0.0845,-7.68301 -0.0464,-2.37931 -0.0797,-4.76622 0.16337,-7.13736 0.0338,-0.33007 0.12373,-0.65644 0.1207,-0.98803 -0.005,-0.59839 -0.18062,-1.18398 -0.1529,-1.7842 0.0144,-0.31073 0.1046,-0.62247 0.28978,-0.87586 0.0235,-0.0322 0.0483,-0.0635 0.0743,-0.0936 z"
       id="path3913" />
    <path
       style="fill:#81776b;fill-opacity:1;stroke:#81776b;stroke-width:0.264583px;stroke-linecap:butt;stroke-linejoin:miter;stroke-opacity:1"
       d="m 245.45014,176.3905 c -0.0864,0.15301 -0.13846,0.32674 -0.1426,0.50281 -0.003,0.14084 0.0288,0.28428 0.10368,0.40488 0.0341,0.0549 0.0786,0.10238 0.12646,0.14565 0.1409,0.12746 0.31364,0.21655 0.49528,0.27009 0.22088,0.0651 0.454,0.0824 0.68298,0.066 0.0703,-0.005 0.14087,-0.0103 0.20999,-0.024 0.0759,-0.0151 0.14145,-0.0598 0.19971,-0.10879 0.0764,-0.0643 0.14476,-0.13985 0.23296,-0.1887 0.0516,-0.0286 0.11167,-0.0307 0.16985,-0.0416 0.15299,-0.0285 0.30926,-0.016 0.46366,-0.0103 0.13662,0.005 0.27623,0.005 0.40855,-0.0336 0.0524,-0.0155 0.10545,-0.0334 0.14972,-0.0654 0.13954,-0.10086 0.24665,-0.24082 0.32614,-0.3924 0.0785,-0.14963 0.12858,-0.31191 0.17232,-0.47471 0.0283,-0.10541 0.0203,-0.21941 -0.0173,-0.32141 -0.0307,-0.0833 -0.0844,-0.16093 -0.16139,-0.20744 -0.0632,-0.0382 -0.14047,-0.0485 -0.21307,-0.0364 -0.17029,0.0283 -0.32951,0.0989 -0.48438,0.17245 -0.16863,0.0801 -0.34071,0.15229 -0.51899,0.2112 -0.14019,0.0463 -0.29016,0.056 -0.43661,0.0433 -0.22477,-0.0194 -0.44175,-0.0846 -0.66212,-0.12904 -0.163,-0.0328 -0.33065,-0.0534 -0.49686,-0.0343 -0.0915,0.0105 -0.18068,0.0361 -0.26604,0.0704 -0.11999,0.0482 -0.2329,0.11229 -0.34195,0.18136 z"
       id="path4067" />
    <path
       style="fill:#ddd4cd;fill-opacity:1;stroke:#ddd4cd;stroke-width:0.264583px;stroke-linecap:butt;stroke-linejoin:miter;stroke-opacity:1"
       d="m 243.67541,162.88096 c 0.0579,0.6704 0.25382,1.31754 0.4397,1.96101 0.1721,0.59577 0.22336,1.21793 0.37806,1.82125 0.36581,1.42664 0.49592,2.93409 1.09254,4.28131 0.2291,0.51733 0.33994,1.07567 0.44593,1.62843 0.0745,0.38857 -0.0956,0.98268 0.25945,1.15829 0.3075,0.15209 0.57492,0.38176 0.77523,0.66028 0.24963,0.34709 0.39769,0.75457 0.50949,1.16393 0.0407,0.14909 0.0317,0.31755 0.11124,0.45005 0.0775,0.12917 0.16989,0.25845 0.30369,0.33451 0.0831,0.0473 0.18876,0.0533 0.27491,0.01 0.12392,-0.063 0.20623,-0.18421 0.26208,-0.30734 0.10315,-0.22741 0.14441,-0.48319 0.11819,-0.73117 -0.0187,-0.17664 -0.13036,-0.32223 -0.19627,-0.49024 -0.6426,-1.63796 -1.22717,-3.30492 -1.61112,-5.02445 -0.0416,-0.18617 -0.0668,-0.37617 -0.11742,-0.56009 -0.34541,-1.25441 -0.86406,-2.45151 -1.39706,-3.63545 -0.24235,-0.53832 -0.56494,-1.0479 -0.72339,-1.61662 -0.27981,-1.00429 -0.54578,-2.01745 -0.95772,-2.97781 -0.0697,-0.16261 -0.19406,-0.30734 -0.22212,-0.48205 -0.0278,-0.17327 -0.0867,-0.3415 -0.16927,-0.49569 -0.037,-0.0692 -0.0827,-0.13322 -0.13167,-0.1956 -0.0281,-0.0358 -0.0586,-0.002 -0.0594,0.0341 -0.003,0.10519 0.0225,0.20876 0.0476,0.31011 0.0303,0.12229 0.053,0.24632 0.0809,0.36919 0.16307,0.71672 0.38678,1.4224 0.46925,2.15526 0.007,0.0596 0.0125,0.11937 0.0172,0.17919 z"
       id="path4223" />
    <path
       style="fill:#ddd4cd;fill-opacity:1;stroke:#ddd4cd;stroke-width:0.264583px;stroke-linecap:butt;stroke-linejoin:miter;stroke-opacity:1"
       d="m 248.80239,176.60124 c 0.23533,0.0551 0.48393,0.0356 0.71314,-0.0382 0.33027,-0.10641 0.61873,-0.30455 0.9155,-0.47867 0.22735,-0.13339 0.47853,-0.21357 0.73012,-0.30237 0.0682,-0.0241 0.12842,0.0183 0.18866,0.0446 0.61461,0.26789 1.21227,0.58193 1.8566,0.77541 0.22645,0.068 0.46262,0.0949 0.69243,0.15093 1.86607,0.45537 3.71071,1.0141 5.48527,1.75462 0.26118,0.10899 0.51778,0.22865 0.78178,0.331 0.61905,0.24 1.25911,0.4336 1.84761,0.74593 0.38753,0.20567 0.73896,0.48031 1.02396,0.81714 0.0267,0.0315 0.0463,0.0611 0.044,0.10739 -0.006,0.11647 -0.0391,0.24189 -0.13215,0.31949 -0.095,0.0792 -0.22562,0.0946 -0.34471,0.0869 -0.21786,-0.014 -0.4279,-0.0812 -0.63252,-0.15309 -0.32135,-0.11297 -0.6299,-0.26058 -0.95466,-0.36369 -0.0903,-0.0287 -0.18524,-0.0391 -0.2769,-0.0646 -2.11476,-0.58737 -4.2213,-1.21464 -6.37297,-1.65755 -0.12733,-0.0262 -0.25507,-0.0493 -0.38409,-0.0662 -0.79765,-0.10449 -1.60104,-0.20375 -2.37419,-0.43444 -0.41083,-0.12258 -0.82393,-0.26266 -1.18541,-0.49406 -0.24349,-0.15587 -0.52022,-0.24606 -0.78497,-0.35774 -0.22376,-0.0944 -0.44891,-0.20371 -0.62119,-0.37922 -0.0955,-0.0973 -0.16976,-0.21506 -0.21533,-0.34359 z"
       id="path4381" />
    <path
       style="fill:#ddd4cd;fill-opacity:1;stroke:#ddd4cd;stroke-width:0.264583px;stroke-linecap:butt;stroke-linejoin:miter;stroke-opacity:1"
       d="m 247.91503,176.94508 c -0.60222,0.7645 -1.11056,1.60173 -1.76324,2.32649 -0.23579,0.26183 -0.51674,0.47742 -0.76862,0.72417 -0.70451,0.69017 -1.36283,1.43625 -1.88467,2.27592 -0.21598,0.34752 -0.35908,0.73493 -0.56699,1.08745 -0.3966,0.67245 -0.67876,1.40277 -0.97369,2.1232 -0.0466,0.11393 -0.0808,0.23403 -0.14152,0.34113 -0.52557,0.9274 -0.9411,1.91606 -1.52509,2.81028 -0.14634,0.22408 -0.28177,0.46099 -0.47179,0.6495 -0.11932,0.11837 -0.20164,0.26992 -0.25642,0.42731 -0.0419,0.12036 -0.077,0.24763 -0.0672,0.37591 0.004,0.0576 0.0202,0.13154 0.0807,0.15244 0.0626,0.0216 0.12782,-0.01 0.18106,-0.0411 0.10066,-0.0594 0.18369,-0.14249 0.27038,-0.21965 0.40735,-0.36256 0.70884,-0.82245 1.07968,-1.21908 0.10009,-0.10705 0.22101,-0.19337 0.31803,-0.30329 0.36488,-0.41338 0.63213,-0.89959 0.89082,-1.38327 0.25884,-0.48396 0.61461,-0.91071 0.86099,-1.40374 0.34513,-0.69064 0.81695,-1.308 1.31596,-1.89357 0.44811,-0.52584 0.97818,-0.98769 1.36126,-1.56277 0.38127,-0.57236 0.7313,-1.16998 1.18636,-1.68885 0.25836,-0.29459 0.64917,-0.45304 0.88877,-0.76431 0.0869,-0.11292 0.13229,-0.25611 0.12606,-0.39871 -0.009,-0.19591 -0.0883,-0.37856 -0.16075,-0.55774 -0.0743,-0.18381 -0.15297,-0.37289 -0.1568,-0.57424 -0.002,-0.12158 0.0373,-0.23939 0.0934,-0.34732 0.11466,-0.22068 0.14342,-0.47739 0.11926,-0.7223 -0.007,-0.072 -0.019,-0.14349 -0.0359,-0.21381 z"
       id="path4574" />
    <path
       style="fill:#cdbbad;fill-opacity:1;stroke:#cdbbad;stroke-width:0.264583px;stroke-linecap:butt;stroke-linejoin:miter;stroke-opacity:1"
       d="m 273.00765,178.6199 c 0.1723,0.3546 0.22819,0.75498 0.21281,1.14621 -0.0301,0.76657 -0.28781,1.50601 -0.29642,2.27448 -0.001,0.0919 0.0144,0.18384 0.009,0.27565 -0.11958,2.02463 0.046,4.0509 0.21124,6.06801 0.16516,2.01578 0.32407,4.04025 0.21231,6.06401 -0.0194,0.3511 -0.0776,0.6998 -0.0869,1.05114 -0.0491,1.84858 0.61713,3.7583 0.13489,5.54387 -0.0475,0.17595 -0.11788,0.35607 -0.25487,0.48264 -0.0888,0.0821 -0.21872,0.11877 -0.33663,0.0855 -0.16443,-0.0464 -0.28551,-0.186 -0.3563,-0.33604 -0.10975,-0.23262 -0.0124,-0.49111 -0.0113,-0.74662 0.0113,-2.77697 -0.18428,-5.54892 -0.29491,-8.32281 -0.0834,-2.09184 -0.15106,-4.1959 0.089,-6.27861 0.0481,-0.41726 0.0539,-0.83818 0.047,-1.25771 -0.0197,-1.19103 -0.17553,-2.38154 -0.0863,-3.5728 0.0169,-0.22573 0.026,-0.4542 0.0767,-0.67483 0.0459,-0.1997 0.0307,-0.40658 0.0212,-0.60935 -0.0118,-0.25292 -0.0372,-0.50944 0.01,-0.76028 0.0267,-0.14274 0.0919,-0.2893 0.21981,-0.36859 0.14232,-0.0882 0.31979,-0.0861 0.48002,-0.0639 z"
       id="path5031" />
    <path
       style="fill:#81776b;fill-opacity:1;stroke:#81776b;stroke-width:0.264583px;stroke-linecap:butt;stroke-linejoin:miter;stroke-opacity:1"
       d="m 271.02341,178.95265 c 0.0738,0.16132 0.17966,0.3089 0.31344,0.42578 0.1117,0.0976 0.24597,0.17322 0.3928,0.20093 0.0934,0.0176 0.19136,0.017 0.28288,-0.009 0.10742,-0.0304 0.20181,-0.0926 0.29262,-0.15564 0.0973,-0.0675 0.19313,-0.13985 0.30358,-0.18492 0.0791,-0.0323 0.16643,-0.0439 0.25143,-0.0322 0.0456,0.006 0.0911,0.0136 0.13562,0.0256 0.18112,0.049 0.3437,0.14949 0.52589,0.19523 0.0761,0.0191 0.15976,0.0435 0.23377,0.0166 0.0816,-0.0297 0.15321,-0.084 0.20693,-0.152 0.0709,-0.0898 0.11363,-0.19774 0.14733,-0.30601 0.0324,-0.10421 0.0501,-0.2128 0.0867,-0.31559 0.0328,-0.0921 0.0466,-0.19163 0.036,-0.28892 -0.008,-0.0725 -0.0306,-0.14606 -0.079,-0.20225 -0.0377,-0.0438 -0.093,-0.0683 -0.14965,-0.0784 -0.0412,-0.007 -0.0825,1e-4 -0.12393,-9.6e-4 -0.1999,-0.005 -0.39836,0.027 -0.59384,0.0656 -0.22955,0.0453 -0.45827,0.13024 -0.6925,0.11605 -0.17098,-0.0104 -0.33615,-0.059 -0.50218,-0.0975 -0.14067,-0.0326 -0.28525,-0.0593 -0.43023,-0.0473 -0.0732,0.006 -0.15208,0.0105 -0.21365,0.0506 -0.0728,0.0475 -0.12815,0.11731 -0.16974,0.19284 -0.0755,0.13713 -0.12659,0.28475 -0.18784,0.42878 -0.0217,0.051 -0.0436,0.10198 -0.0665,0.15249 z"
       id="path5197" />
    <path
       style="fill:#ddd4cd;fill-opacity:1;stroke:#ddd4cd;stroke-width:0.264583px;stroke-linecap:butt;stroke-linejoin:miter;stroke-opacity:1"
       d="m 270.44416,166.66319 c 0.15828,0.85103 0.46032,1.66576 0.76843,2.4718 0.32105,0.83988 0.65815,1.68031 0.84092,2.56337 0.028,0.13509 0.0562,0.26969 0.0916,0.40324 0.44171,1.6648 0.69284,3.3921 1.3363,4.99184 0.038,0.0944 0.058,0.19697 0.10814,0.28617 0.0752,0.13377 0.10471,0.28835 0.11436,0.43979 0.0118,0.18465 0.004,0.37489 -0.0574,0.55042 -0.0287,0.0823 -0.068,0.16841 -0.14317,0.21848 -0.0571,0.0381 -0.13207,0.0263 -0.18846,-0.007 -0.0845,-0.0505 -0.21864,-0.11155 -0.20457,-0.2077 0.0447,-0.30517 0.0166,-0.62162 -0.0902,-0.9118 -0.12358,-0.33552 -0.34449,-0.6256 -0.5936,-0.87821 -0.1391,-0.14105 -0.36988,-0.21327 -0.44062,-0.39823 -0.20447,-0.53457 -0.28127,-1.10762 -0.31411,-1.67607 -0.0465,-0.80468 -0.01,-1.61549 -0.13076,-2.41486 -0.0528,-0.34846 -0.14495,-0.6903 -0.26981,-1.02021 -0.57144,-1.50985 -1.21644,-2.99522 -1.67119,-4.54622 -0.0436,-0.14867 -0.0952,-0.29555 -0.12696,-0.44719 -0.0644,-0.3078 -0.12638,-0.61787 -0.14421,-0.93217 -0.007,-0.12707 -0.0174,-0.25763 0.0145,-0.38186 0.0126,-0.049 0.0335,-0.11219 0.0887,-0.1219 0.0582,-0.0102 0.11151,0.0263 0.15346,0.0617 0.11123,0.0939 0.20212,0.20959 0.28335,0.32936 0.22229,0.32774 0.35817,0.70518 0.45596,1.08658 0.0459,0.17894 0.0838,0.3598 0.1193,0.54105 z"
       id="path5398" />
    <path
       style="fill:#ddd4cd;fill-opacity:1;stroke:#ddd4cd;stroke-width:0.264583px;stroke-linecap:butt;stroke-linejoin:miter;stroke-opacity:1"
       d="m 275.3493,178.53117 c 0.36983,-0.23663 0.80429,-0.37109 1.2437,-0.38186 0.4507,-0.0111 0.87097,0.17464 1.29136,0.33536 1.10414,0.42213 2.1463,0.99194 3.26304,1.3834 0.12615,0.0442 0.25555,0.0788 0.3813,0.124 0.96483,0.34666 1.92981,0.70604 2.83598,1.18954 0.31072,0.16579 0.63056,0.32346 0.90577,0.54332 0.12624,0.10085 0.23687,0.23061 0.28658,0.38593 0.0234,0.073 0.037,0.15895 -0.003,0.22895 -0.0318,0.0563 -0.10151,0.0755 -0.16248,0.0708 -0.11085,-0.009 -0.20796,-0.0695 -0.30837,-0.11311 -0.0851,-0.037 -0.17552,-0.0629 -0.26334,-0.094 -0.94155,-0.33265 -1.85055,-0.75738 -2.81307,-1.02986 -0.22353,-0.0633 -0.45783,-0.0866 -0.67779,-0.16147 -1.09611,-0.37293 -2.23358,-0.60336 -3.37027,-0.81275 -0.58569,-0.10789 -1.19453,-0.12874 -1.75684,-0.32495 -0.32415,-0.11311 -0.66311,-0.1734 -0.99735,-0.24801 -0.33218,-0.0742 -0.66721,-0.15474 -0.97395,-0.30633 -0.22117,-0.1093 -0.44062,-0.2557 -0.56058,-0.47392 -0.0254,-0.0462 -0.0949,-0.0993 -0.0729,-0.14453 0.0418,-0.0861 0.11483,-0.15978 0.20797,-0.18814 0.11779,-0.0359 0.24344,-0.0145 0.3602,0.0142 0.23265,0.0572 0.45603,0.15496 0.69595,0.18022 0.13011,0.0137 0.26847,-0.004 0.37942,-0.0786 0.0407,-0.0272 0.0769,-0.0607 0.10823,-0.0982 z"
       id="path5638" />
    <path
       style="fill:#ddd4cd;fill-opacity:1;stroke:#ddd4cd;stroke-width:0.264583px;stroke-linecap:butt;stroke-linejoin:miter;stroke-opacity:1"
       d="m 273.26647,178.80846 c -0.26291,-0.0134 -0.52749,0.0486 -0.7606,0.17027 -0.29876,0.156 -0.54449,0.39496 -0.7597,0.65079 -0.2849,0.33867 -0.56965,0.68316 -0.7811,1.07116 -0.54645,1.0027 -1.23431,1.91808 -1.92457,2.82453 -0.70922,0.93135 -1.42839,1.8615 -2.00903,2.88084 -0.25804,0.453 -0.23751,1.12459 -0.67405,1.40999 -0.15539,0.10159 -0.27009,0.25528 -0.35233,0.41934 -0.0786,0.15676 -0.14005,0.32699 -0.147,0.50312 -0.003,0.0811 0.002,0.16888 0.0492,0.23826 0.0338,0.0496 0.0982,0.0669 0.15527,0.0569 0.10256,-0.018 0.1916,-0.0784 0.27273,-0.14034 0.0983,-0.0751 0.18475,-0.16394 0.27124,-0.25212 0.716,-0.73007 1.64857,-1.24272 2.27817,-2.04767 0.70396,-0.90002 1.44002,-1.77894 2.05578,-2.74372 0.2411,-0.37776 0.32052,-0.87476 0.65487,-1.17337 0.34856,-0.3113 0.63496,-0.69894 0.79821,-1.13915 0.13717,-0.36988 0.17714,-0.77431 0.11857,-1.16445 -0.015,-0.10019 -0.0976,-0.20179 -0.0632,-0.29709 0.0704,-0.19535 0.20366,-0.35882 0.33899,-0.51303 0.1468,-0.16728 0.30428,-0.33109 0.40258,-0.53333 0.0341,-0.0702 0.0602,-0.1444 0.076,-0.2209 z"
       id="path5844" />
    <path
       style="fill:#cdbbad;fill-opacity:1;stroke:#cdbbad;stroke-width:0.264583px;stroke-linecap:butt;stroke-linejoin:miter;stroke-opacity:1"
       d="m 39.992687,177.385 c 0.180684,-0.0305 0.37954,-0.0252 0.539582,0.0746 0.152439,0.095 0.240306,0.26363 0.286063,0.43234 0.07355,0.2712 0.07457,0.5552 0.06896,0.83413 -0.0053,0.2635 -0.0061,0.52711 -0.0223,0.79038 -0.08921,1.45035 0.01954,2.90223 0.103571,4.35004 0.02462,0.4242 0.12103,0.85243 0.06196,1.27323 -0.141723,1.00953 -0.09047,2.03162 -0.145024,3.04683 -0.01636,0.30442 -0.05679,0.60679 -0.08561,0.91035 -0.127818,1.34622 -0.04719,2.70224 0.09964,4.04343 0.07969,0.72789 1.15e-4,1.50069 0.275121,2.17927 0.155064,0.38262 0.113999,0.8372 -0.10037,1.18887 -0.116458,0.19105 -0.297736,0.35206 -0.519335,0.40615 -0.200637,0.049 -0.424943,0.0109 -0.587117,-0.11113 -0.06479,-0.0487 -0.161527,-0.0812 -0.188658,-0.16108 -0.147029,-0.4327 -0.165934,-0.89573 -0.151412,-1.34876 0.0189,-0.58962 0.05079,-1.17755 0.04181,-1.76995 -0.01425,-0.94089 0.195092,-1.86615 0.201315,-2.80725 6.15e-4,-0.093 -0.0084,-0.18562 -0.0028,-0.27876 0.118206,-1.9866 0.197101,-3.98007 0.07748,-5.96922 -0.01804,-0.29993 -0.04918,-0.59888 -0.06172,-0.89921 -0.05434,-1.3008 0.0017,-2.60062 -0.02379,-3.90348 -0.01491,-0.76319 0.142875,-1.51781 0.132675,-2.28081 z"
       id="path6085" />
    <path
       style="fill:#81776b;fill-opacity:1;stroke:#81776b;stroke-width:0.264583px;stroke-linecap:butt;stroke-linejoin:miter;stroke-opacity:1"
       d="m 39.034072,176.74188 c -0.06358,0.0849 -0.100286,0.18773 -0.113426,0.29249 -0.01675,0.13354 -3.48e-4,0.26918 0.03148,0.39919 0.01247,0.0509 0.02525,0.102 0.04348,0.15118 0.03725,0.10046 0.087,0.19776 0.157545,0.27909 0.05425,0.0625 0.123362,0.11459 0.203543,0.13818 0.0386,0.0114 0.07913,0.016 0.11941,0.0129 0.06968,-0.005 0.135845,-0.0339 0.192298,-0.0743 0.08268,-0.0591 0.148018,-0.13795 0.217069,-0.21164 0.03654,-0.039 0.0771,-0.0738 0.116407,-0.11014 0.06463,-0.0597 0.153513,-0.0898 0.241111,-0.0876 0.09917,0.002 0.192557,0.0496 0.265288,0.11725 0.0698,0.0649 0.14126,0.13071 0.227295,0.17372 0.05983,0.0299 0.128953,0.0458 0.195271,0.0327 0.06159,-0.0122 0.121222,-0.0352 0.173948,-0.0696 0.08985,-0.0585 0.157143,-0.14649 0.203667,-0.24212 0.0578,-0.11881 0.08673,-0.24994 0.09628,-0.3813 0.01094,-0.15039 -1.62e-4,-0.30397 -0.0466,-0.44805 -0.03209,-0.0996 -0.07976,-0.19663 -0.152938,-0.27185 -0.03166,-0.0325 -0.07578,-0.0551 -0.122102,-0.053 -0.05332,0.002 -0.101315,0.0304 -0.14292,0.0618 -0.05955,0.0449 -0.108773,0.10125 -0.163287,0.15175 -0.0788,0.073 -0.164309,0.14122 -0.26299,0.1854 -0.07404,0.0332 -0.156709,0.0516 -0.237532,0.0407 -0.04315,-0.006 -0.08666,-0.008 -0.130053,-0.0116 -0.136007,-0.0103 -0.27366,-0.0204 -0.404669,-0.061 -0.06993,-0.0217 -0.135527,-0.0553 -0.197336,-0.0948 -0.05912,-0.0377 -0.123656,-0.0703 -0.193722,-0.0808 -0.04887,-0.007 -0.09942,0.003 -0.143011,0.0274 -0.02444,0.0137 -0.03964,0.0388 -0.06182,0.0547 -0.03706,0.0266 -0.07507,0.0527 -0.111686,0.0793 z"
       id="path6262" />
    <path
       style="fill:#ddd4cd;fill-opacity:1;stroke:#ddd4cd;stroke-width:0.264583px;stroke-linecap:butt;stroke-linejoin:miter;stroke-opacity:1"
       d="m 42.058074,175.00859 c 0.426859,-0.0423 0.837385,-0.18239 1.226853,-0.35731 0.545195,-0.24486 1.098724,-0.47792 1.606952,-0.79296 0.804827,-0.49889 1.612195,-0.99874 2.470144,-1.40317 0.06852,-0.0323 0.137455,-0.0634 0.204588,-0.0987 0.64377,-0.33887 1.35768,-0.51734 2.001025,-0.85729 0.144414,-0.0763 0.277937,-0.17099 0.41729,-0.25613 0.178677,-0.10917 0.354496,-0.22728 0.550063,-0.30383 0.06722,-0.0263 0.137622,-0.0521 0.211055,-0.0492 0.03603,0.001 0.07193,0.0243 0.08065,0.0609 0.01453,0.0609 -0.0054,0.12324 -0.02517,0.18051 -0.01718,0.0499 -0.04101,0.0958 -0.07507,0.13733 -0.167724,0.20434 -0.391247,0.35335 -0.622482,0.47696 -0.324354,0.17339 -0.672967,0.305 -0.972666,0.52178 -0.08677,0.0628 -0.157841,0.14443 -0.242299,0.21036 -0.873907,0.68221 -1.858788,1.20756 -2.722118,1.90432 -0.216155,0.17445 -0.418166,0.36537 -0.61747,0.55885 -0.525778,0.51042 -1.064715,1.01348 -1.672935,1.42549 -0.292337,0.19803 -0.601954,0.37013 -0.923413,0.51677 -0.370634,0.16907 -0.737643,0.35412 -1.133145,0.45906 -0.22839,0.0606 -0.497062,0.1893 -0.702738,0.0715 -0.08627,-0.0494 -0.173311,-0.11046 -0.219451,-0.2016 -0.03502,-0.0692 -0.02655,-0.15269 0.007,-0.22086 0.05344,-0.10861 0.142613,-0.19412 0.232377,-0.27291 0.158807,-0.13939 0.337885,-0.25422 0.492771,-0.39806 0.0337,-0.0313 0.07565,-0.0587 0.09399,-0.10094 0.07971,-0.18383 0.09004,-0.38631 0.110471,-0.58294 0.01847,-0.17779 0.04688,-0.36074 0.140643,-0.51637 0.02395,-0.0398 0.05185,-0.0773 0.08309,-0.11151 z"
       id="path6441" />
    <path
       style="fill:#ddd4cd;fill-opacity:1;stroke:#ddd4cd;stroke-width:0.264583px;stroke-linecap:butt;stroke-linejoin:miter;stroke-opacity:1"
       d="m 41.796634,179.22024 c 0.167929,0.41285 0.235623,0.86015 0.242418,1.30403 0.01028,0.67175 -0.103927,1.33616 -0.163733,2.00332 -0.02465,0.275 -0.02235,0.55138 -0.0335,0.82743 -0.07134,1.7649 0.10804,3.53034 0.01361,5.29488 -0.01496,0.27945 0.13816,1.02655 -0.06748,0.83673 -0.15771,-0.14558 -0.268093,-0.337 -0.332003,-0.54094 -0.08848,-0.28233 -0.102292,-0.58028 -0.118104,-0.87361 -0.01437,-0.26659 -0.03471,-0.53426 -0.09842,-0.79485 -0.160306,-0.65577 -0.363375,-1.30308 -0.458231,-1.97323 -0.02826,-0.19964 -0.04084,-0.40101 -0.04987,-0.60243 -0.03312,-0.73895 -0.196091,-1.46288 -0.297387,-2.19367 -0.04769,-0.34407 -0.06517,-0.69118 -0.0817,-1.03844 -0.04203,-0.88331 0.06355,-1.76402 0.0855,-2.64627 0.0072,-0.28797 0.0483,-0.58244 -0.01336,-0.8639 -0.02625,-0.11982 -0.03688,-0.24983 0.0093,-0.36656 0.03294,-0.0833 0.105971,-0.1481 0.192075,-0.17283 0.125261,-0.036 0.260647,-0.005 0.37413,0.0531 0.169088,0.0872 0.299054,0.25098 0.334777,0.43975 0.01278,0.0675 0.0095,0.13662 0.0206,0.20454 0.03398,0.20875 0.134442,0.39798 0.232115,0.58293 0.07555,0.14307 0.159477,0.2852 0.196411,0.4441 0.0058,0.025 0.01027,0.0505 0.01288,0.0759 z"
       id="path6771" />
    <path
       style="fill:#ddd4cd;fill-opacity:1;stroke:#ddd4cd;stroke-width:0.264583px;stroke-linecap:butt;stroke-linejoin:miter;stroke-opacity:1"
       d="m 31.391262,171.81652 c -0.04218,-0.12461 -0.137141,-0.22334 -0.239516,-0.30163 -0.166374,-0.12723 -0.358195,-0.22154 -0.559882,-0.27626 -0.10585,-0.0287 -0.216529,-0.0545 -0.326462,-0.0406 -0.04795,0.006 -0.106224,0.0216 -0.124377,0.0709 -0.01954,0.0531 0.0051,0.10967 0.03251,0.15467 0.07524,0.12348 0.182982,0.22283 0.289853,0.3184 0.518913,0.46405 1.116397,0.82992 1.729722,1.15472 0.586202,0.31044 1.207183,0.55477 1.779253,0.89039 0.957302,0.56162 1.806082,1.29839 2.530536,2.13715 0.08902,0.10306 0.152643,0.23206 0.261568,0.31379 0.221214,0.16598 0.413795,0.36557 0.61495,0.5544 0.203894,0.1914 0.414325,0.38151 0.661397,0.51604 0.176898,0.0963 0.380196,0.16967 0.581716,0.1407 0.04682,-0.007 0.114623,0.01 0.141854,-0.0277 0.09919,-0.13587 0.230582,-0.25491 0.392155,-0.3104 0.149233,-0.0513 0.31263,-0.0395 0.462586,0.002 0.186133,0.052 0.373083,0.35102 0.52683,0.23539 0.120191,-0.0904 0.233622,-0.20141 0.288733,-0.34458 0.04098,-0.10647 0.03247,-0.2279 -0.0149,-0.33101 -0.06674,-0.14528 -0.185969,-0.25926 -0.314019,-0.35105 -0.198788,-0.14249 -0.424032,-0.24659 -0.658249,-0.31528 -0.06867,-0.0201 -0.145225,-0.0164 -0.208903,-0.0491 -0.966058,-0.49597 -1.803398,-1.20529 -2.769864,-1.70052 -0.315661,-0.16175 -0.661748,-0.25191 -0.986444,-0.39544 -1.363155,-0.60259 -2.623395,-1.41283 -3.992366,-2.00332 -0.03283,-0.0142 -0.06582,-0.0281 -0.09868,-0.0421 z"
       id="path6955" />
    <path
       style="fill:#cdbbad;fill-opacity:1;stroke:#cdbbad;stroke-width:0.264583px;stroke-linecap:butt;stroke-linejoin:miter;stroke-opacity:1"
       d="m 169.65946,196.48747 c 0.48142,-0.0253 1.00314,0.0387 1.39227,0.34884 0.36959,0.29452 0.5367,0.76736 0.59622,1.22158 0.10006,0.76358 0.005,1.535 -0.0904,2.29393 -0.1123,0.89637 -0.28765,1.79122 -0.27529,2.69739 0.004,0.2809 0.0856,0.55441 0.10073,0.83586 0.22392,4.16384 0.61264,8.32787 0.47726,12.50254 -0.0275,0.84804 -0.0917,1.69409 -0.12372,2.54202 -0.18816,4.98827 -0.43531,10.00213 0.0486,14.96772 0.24378,2.50141 0.0317,5.01386 -0.0673,7.51685 -0.0484,1.22353 -0.36638,2.5043 0.002,3.67293 0.19883,0.63148 0.2056,1.30862 0.12516,1.95984 -0.0945,0.76513 -0.28444,1.53473 -0.67511,2.20386 -0.20835,0.35686 -0.48225,0.70667 -0.87318,0.87312 -0.29559,0.12586 -0.64001,0.0703 -0.91128,-0.091 -0.42935,-0.2553 -1.10125,-0.59981 -1.00138,-1.08099 0.38776,-1.86824 0.38115,-3.78923 0.29899,-5.68724 -0.0402,-0.92803 -0.12886,-1.85401 -0.14852,-2.78264 -0.0291,-1.37353 0.2949,-2.71939 0.60284,-4.04822 0.29783,-1.28519 0.58883,-2.59472 0.52465,-3.92207 -0.0147,-0.30484 -0.0419,-0.60823 -0.053,-0.91359 -0.21642,-5.99291 0.62906,-12.01267 0.0679,-17.98052 -0.21236,-2.25832 -0.46339,-4.52853 -0.30718,-6.79914 0.0554,-0.80484 0.31561,-1.58779 0.33878,-2.39449 0.0756,-2.63264 0.27859,-5.28113 -0.0437,-7.89699 -0.002,-0.0131 -0.004,-0.0267 -0.005,-0.0396 z"
       id="path7174" />
    <path
       style="fill:#81776b;fill-opacity:1;stroke:#81776b;stroke-width:0.264583px;stroke-linecap:butt;stroke-linejoin:miter;stroke-opacity:1"
       d="m 167.81193,194.29145 c 0.092,0.22489 0.12914,0.46903 0.12959,0.71115 6.4e-4,0.34233 -0.0641,0.67979 -0.11446,1.0171 -0.0443,0.29655 -0.0942,0.6 -0.048,0.89779 0.01,0.0642 0.0113,0.13159 0.0366,0.19226 0.0794,0.1908 0.11531,0.39806 0.21133,0.58225 0.0507,0.0974 0.12655,0.18251 0.22337,0.23736 0.049,0.0278 0.10442,0.0383 0.15971,0.046 0.22515,0.0314 0.45421,0.006 0.67478,-0.044 0.37496,-0.0846 0.73296,-0.23468 1.11294,-0.2985 0.10932,-0.0184 0.22454,0.002 0.33101,-0.0288 0.15034,-0.0439 0.31499,-0.0368 0.46075,0.0214 0.1333,0.0532 0.23975,0.1545 0.33181,0.26404 0.0597,0.071 0.13926,0.13042 0.23274,0.14599 0.0952,0.0159 0.19167,-0.0175 0.27103,-0.0687 0.11777,-0.076 0.21207,-0.18357 0.28862,-0.29982 0.0343,-0.0521 0.0582,-0.11028 0.0913,-0.1632 0.18124,-0.29021 0.38702,-0.56634 0.53735,-0.87487 0.0976,-0.20025 0.16777,-0.41632 0.18418,-0.63958 0.025,-0.34031 -0.0841,-0.69001 -0.30431,-0.95144 -0.046,-0.0546 -0.0814,-0.13984 -0.15205,-0.15065 -0.096,-0.0147 -0.19477,0.007 -0.28055,0.0512 -0.12655,0.065 -0.22925,0.16563 -0.33356,0.26041 -0.044,0.04 -0.0934,0.0737 -0.13586,0.11535 -0.14559,0.14278 -0.28302,0.29659 -0.45173,0.41299 -0.0979,0.0676 -0.20928,0.1224 -0.32988,0.13101 -0.0998,0.007 -0.19533,-0.0317 -0.28111,-0.0814 -0.0367,-0.0213 -0.0649,-0.0537 -0.10329,-0.0724 -0.22829,-0.11142 -0.42788,-0.27294 -0.60944,-0.44896 -0.27279,-0.26446 -0.52139,-0.55194 -0.79834,-0.81308 -0.13646,-0.12867 -0.2727,-0.26165 -0.43699,-0.35472 -0.10095,-0.0572 -0.21659,-0.0973 -0.3342,-0.0872 -0.0843,0.007 -0.15846,0.0515 -0.23121,0.0937 -0.11137,0.0646 -0.21454,0.14367 -0.33208,0.19732 z"
       id="path7518" />
    <path
       style="fill:#ddd4cd;fill-opacity:1;stroke:#ddd4cd;stroke-width:0.264583px;stroke-linecap:butt;stroke-linejoin:miter;stroke-opacity:1"
       d="m 172.81418,195.8914 c 0.51848,-0.0507 1.01064,-0.26187 1.43546,-0.55855 0.64202,-0.44837 1.15273,-1.04883 1.7085,-1.59368 0.39844,-0.39061 0.88356,-0.67223 1.32993,-1.01298 2.86997,-2.1909 5.99671,-4.00805 9.00296,-5.99922 1.47777,-0.97879 2.9562,-1.96915 4.30118,-3.12502 1.69154,-1.4537 3.16014,-3.13856 4.6647,-4.77852 0.65015,-0.70866 2.85939,-2.50712 1.99596,-2.08317 -2.12807,1.0449 -4.51436,1.78013 -6.24323,3.40336 -0.8826,0.82867 -1.94107,1.44026 -3.02453,1.96659 -1.47152,0.71484 -3.01594,1.2905 -4.40892,2.15875 -0.6021,0.37529 -1.09351,0.89952 -1.6739,1.30896 -1.44679,1.02066 -2.90494,2.04296 -4.17813,3.28048 -0.95496,0.92821 -2.12398,1.87975 -2.38018,3.19103 -0.0638,0.32634 -0.28304,0.59597 -0.52101,0.81583 -0.44979,0.41557 -0.98385,0.7223 -1.4876,1.0656 -0.30662,0.20896 -0.62259,0.4173 -0.86519,0.70179 -0.13337,0.1564 -0.2425,0.35937 -0.20967,0.57126 0.0358,0.23103 0.20474,0.41309 0.37837,0.55622 0.0564,0.0464 0.1151,0.0899 0.1753,0.13127 z"
       id="path7709" />
    <path
       style="fill:#ddd4cd;fill-opacity:1;stroke:#ddd4cd;stroke-width:0.264583px;stroke-linecap:butt;stroke-linejoin:miter;stroke-opacity:1"
       d="m 172.86647,200.51873 c 0.40354,1.44708 1.20761,2.74548 1.60135,4.19606 0.15347,0.5654 0.0893,1.16581 0.21588,1.73893 0.44297,2.00495 0.53195,4.06721 0.52612,6.11431 -0.007,2.59667 -0.0136,5.19052 0.0647,7.79125 0.0744,2.4719 0.0994,4.95329 0.44479,7.40681 0.0724,0.51424 0.18969,1.02109 0.26626,1.53461 0.0414,0.278 0.0444,0.57534 -0.0678,0.83572 -0.0394,0.0915 -0.0881,0.20537 -0.1916,0.2328 -0.0852,0.0226 -0.15433,-0.055 -0.19039,-0.1222 -0.10052,-0.18741 -0.13051,-0.40258 -0.15902,-0.61053 -0.18281,-1.33355 -0.31614,-2.67353 -0.51089,-4.00549 -0.13173,-0.90095 -0.40406,-1.7776 -0.51726,-2.68146 -0.54287,-4.3345 -1.25583,-8.6467 -1.77277,-12.98422 -0.42691,-3.58212 -0.23084,-7.32842 -1.4592,-10.72482 -0.10149,-0.28062 -0.0896,-0.58868 -0.0407,-0.87815 0.0758,-0.44921 0.22512,-0.89289 0.47791,-1.27297 0.13283,-0.19972 0.29479,-0.3971 0.51982,-0.49612 0.14156,-0.0623 0.31089,-0.0434 0.43882,0.0438 0.16131,0.11003 0.39109,0.26491 0.35327,0.45288 -0.2274,1.13011 -0.1564,2.29471 7.5e-4,3.42878 z"
       id="path7935" />
    <path
       style="fill:#ddd4cd;fill-opacity:1;stroke:#ddd4cd;stroke-width:0.264583px;stroke-linecap:butt;stroke-linejoin:miter;stroke-opacity:1"
       d="m 157.79001,187.31124 c 1.86853,1.23196 3.90558,2.17184 5.91203,3.15138 1.45816,0.71187 2.64547,2.33261 4.27015,2.33608 0.40315,8.6e-4 0.79428,0.13209 1.15582,0.30009 0.61318,0.28492 1.18271,0.66937 1.66528,1.14243 0.29147,0.28573 0.5706,0.60043 0.73286,0.97912 0.09,0.21005 0.13877,0.46283 0.0321,0.67623 -0.10854,0.21709 -0.34432,0.32505 -0.5645,0.40006 -0.0875,0.0298 -0.16548,0.0331 -0.25928,-0.005 -1.02767,-0.4127 -2.12981,-0.57798 -3.21635,-0.75621 -1.0241,-0.16799 -2.06023,-0.34116 -3.02384,-0.74276 -0.71083,-0.29625 -1.36252,-0.74336 -1.86865,-1.3271 -0.22279,-0.25695 -0.35567,-0.58284 -0.58584,-0.83303 -1.05713,-1.14905 -2.34718,-2.06183 -3.71738,-2.8002 -2.04778,-1.10351 -4.25761,-1.85072 -6.39772,-2.74746 -1.58834,-0.66554 -3.08052,-1.5301 -4.54136,-2.45352 -0.41064,-0.25957 -0.79013,-0.56533 -1.15908,-0.88019 -0.67277,-0.57414 -1.3305,-1.17326 -1.89668,-1.85394 -0.24987,-0.3004 -0.50782,-0.60683 -0.65916,-0.9698 -0.0623,-0.14942 -0.12303,-0.32379 -0.0612,-0.48242 0.0576,-0.14783 0.2236,-0.21002 0.36927,-0.22732 0.32828,-0.039 0.65922,0.0222 0.97741,0.0978 0.37204,0.0884 0.73906,0.19652 1.10571,0.3047 3.14582,0.92813 6.14045,2.34334 8.89675,4.11522 0.54139,0.34803 1.12544,0.64686 1.59853,1.08304 0.47607,0.43892 0.90021,0.9372 1.23519,1.49233 z"
       id="path8130" />
    <path
       style="fill:#cdbbad;fill-opacity:1;stroke:#cdbbad;stroke-width:0.264583px;stroke-linecap:butt;stroke-linejoin:miter;stroke-opacity:1"
       d="m 79.059497,196.69458 c 0.589978,-0.19902 1.243969,-0.33995 1.857159,-0.1547 0.472467,0.14274 0.826132,0.5382 1.014587,0.98326 0.306149,0.72301 0.349053,1.52411 0.34065,2.29898 -0.01507,1.38956 -0.194224,2.76888 -0.379779,4.14303 -0.03968,0.29387 0.01389,0.58754 0.03902,0.88036 0.338491,3.94351 0.20434,7.90711 0.34947,11.863 0.171251,4.66789 0.397767,9.35616 -0.07343,14.01446 -0.153773,1.52022 -0.483853,3.01509 -0.70873,4.52673 -0.544251,3.6585 -0.374949,7.37398 -0.09306,11.04756 0.320817,4.18096 0.811508,8.37641 0.51442,12.57268 -0.05817,0.82166 -0.10531,1.64838 -0.258975,2.4579 -0.479522,2.52617 -0.435444,5.10791 -0.488939,7.66747 -0.02008,0.96086 0.81001,2.70334 -0.134938,2.87987 -0.834646,0.15592 -1.726124,0.22626 -2.540928,-0.068 -0.593331,-0.21426 -1.064378,-0.69399 -1.321843,-1.26487 -0.377639,-0.83735 -0.438475,-1.77466 -0.437165,-2.68042 0.0025,-1.75664 0.306815,-3.5005 0.271596,-5.25744 -0.0067,-0.33404 -0.109526,-0.66596 -0.07837,-0.99885 0.443603,-4.73967 1.09733,-9.47256 1.082159,-14.24309 -0.0024,-0.74683 -0.05718,-1.4925 -0.06719,-2.23902 -0.133956,-9.99179 -0.483469,-20.01471 0.552749,-29.95945 0.383614,-3.6816 1.013522,-7.35132 0.994035,-11.06297 -0.0046,-0.8836 -0.05132,-1.76677 -0.143603,-2.64598 -0.165955,-1.58106 -0.339114,-3.16819 -0.288898,-4.76053 z"
       id="path8426" />
    <path
       style="fill:#81776b;fill-opacity:1;stroke:#81776b;stroke-width:0.264583px;stroke-linecap:butt;stroke-linejoin:miter;stroke-opacity:1"
       d="m 77.851698,193.47802 c 0.02002,0.4756 0.113827,0.94603 0.11022,1.42297 -0.0019,0.24488 -0.04956,0.48618 -0.10902,0.72444 -0.05675,0.22741 -0.09702,0.46161 -0.08677,0.69676 0.0079,0.18076 0.0503,0.36312 0.144732,0.51916 0.04581,0.0757 0.106662,0.14073 0.17049,0.20188 0.272475,0.26106 0.595477,0.46387 0.933362,0.62906 0.212254,0.10377 0.428913,0.19956 0.652115,0.27683 0.378479,0.13103 0.798454,0.14822 1.183251,0.0331 0.230004,-0.0688 0.438691,-0.19534 0.623565,-0.34899 0.326066,-0.27099 0.598366,-0.60049 0.838887,-0.94812 0.159522,-0.23056 0.332857,-0.45586 0.448482,-0.71118 0.09527,-0.21038 0.137908,-0.4441 0.12613,-0.67449 -0.01049,-0.20518 -0.06686,-0.41173 -0.184359,-0.58223 -0.07939,-0.11519 -0.18277,-0.22242 -0.313729,-0.2718 -0.212331,-0.0801 -0.442522,-0.10446 -0.668127,-0.0894 -0.302589,0.0202 -0.596052,0.10305 -0.8863,0.18594 -0.226452,0.0647 -0.450699,0.14873 -0.685446,0.17149 -0.110548,0.0107 -0.224651,-0.0123 -0.320413,-0.0696 -0.117611,-0.0703 -0.203959,-0.18242 -0.267534,-0.3018 -0.09036,-0.16968 -0.150371,-0.35488 -0.18362,-0.5434 -0.0096,-0.0546 -0.02584,-0.1077 -0.03638,-0.16218 -0.03809,-0.197 -0.05335,-0.39968 -0.118999,-0.59034 -0.03319,-0.0964 -0.0811,-0.19221 -0.162085,-0.25744 -0.06929,-0.0558 -0.161096,-0.0678 -0.248738,-0.0676 -0.05262,1.7e-4 -0.09894,0.0279 -0.144413,0.051 -0.212259,0.10781 -0.39052,0.26972 -0.556645,0.43777 -0.08729,0.0883 -0.172082,0.17933 -0.258664,0.26811 z"
       id="path8625" />
    <path
       style="fill:#ddd4cd;fill-opacity:1;stroke:#ddd4cd;stroke-width:0.264583px;stroke-linecap:butt;stroke-linejoin:miter;stroke-opacity:1"
       d="m 76.742501,153.28216 c 0.887105,2.07369 1.330597,4.30705 1.571002,6.54118 0.39114,3.63494 0.2889,7.31197 0.861248,10.92963 0.11589,0.73251 0.310872,1.44975 0.446113,2.17867 0.408867,2.2037 0.399991,4.4535 0.432137,6.68619 0.02972,2.0641 -0.01965,4.17791 0.569239,6.16511 0.100706,0.33983 0.197564,0.68135 0.273702,1.02795 0.421147,1.9172 0.364508,3.89416 0.636099,5.83142 0.04219,0.30097 -0.0053,0.63936 0.153278,0.89865 0.219319,0.35858 0.297,0.80804 0.173646,1.21448 -0.147992,0.48762 -0.552586,0.89998 -1.050986,1.02708 -0.273228,0.0697 -0.583649,0.009 -0.790277,-0.19041 -0.256358,-0.24775 -0.373458,-0.61426 -0.372997,-0.95912 2.82e-4,-0.21077 -0.07576,-0.41104 -0.144812,-0.60719 -0.331107,-0.94056 -0.938654,-1.74652 -1.54631,-2.52449 -0.617987,-0.7912 -1.267242,-1.58026 -1.664056,-2.51263 -0.281167,-0.66064 -0.383629,-1.39196 -0.308898,-2.10695 0.221869,-2.12274 0.04991,-4.25756 -0.05648,-6.38163 -0.06394,-1.27653 -0.0013,-2.5546 -0.02144,-3.83378 -0.07735,-4.90311 0.608334,-9.89574 -0.347681,-14.70774 -0.401018,-2.01848 -0.38643,-4.09552 -0.190972,-6.13697 0.114033,-1.19101 0.469317,-2.35919 0.486866,-3.55488 0.01384,-0.94263 -0.06924,-1.88829 0.01293,-2.82818 0.01608,-0.18391 0.02974,-0.37093 0.08755,-0.5483 0.04078,-0.12512 0.146722,-0.0222 0.185577,0.0535 0.14704,0.28651 0.225892,0.60178 0.317249,0.90892 0.246404,0.82842 0.40664,1.69072 0.380908,2.55793 -0.0087,0.29229 -0.03857,0.5841 -0.09263,0.87153 z"
       id="path8826" />
    <path
       style="fill:#ddd4cd;fill-opacity:1;stroke:#ddd4cd;stroke-width:0.264583px;stroke-linecap:butt;stroke-linejoin:miter;stroke-opacity:1"
       d="m 86.035157,196.87204 c 1.595233,0.0883 3.205089,-0.0171 4.787705,0.24675 0.977113,0.16289 1.939106,0.49963 2.746899,1.08435 0.250741,0.1815 0.449681,0.42694 0.702285,0.60579 1.464811,1.03713 3.121681,1.7495 4.751739,2.48014 1.527675,0.68475 3.111935,1.34054 4.393535,2.43057 0.20264,0.17235 0.42727,0.31214 0.65845,0.44343 2.00196,1.13695 4.25889,1.73623 6.24752,2.90016 0.96412,0.56429 1.6142,1.52494 2.52689,2.17669 2.37387,1.69516 4.62571,3.57202 7.14548,5.0545 0.82092,0.48298 1.90941,0.58435 2.54627,1.293 0.24954,0.27767 0.51197,0.56157 0.65444,0.91177 0.0534,0.13131 0.0798,0.31415 -0.0423,0.41428 -0.14818,0.12154 -0.35499,0.12694 -0.53633,0.11555 -0.52693,-0.0331 -1.03899,-0.18296 -1.53463,-0.35587 -0.96597,-0.33699 -1.91015,-0.75216 -2.77843,-1.29382 -0.40774,-0.25436 -0.86046,-0.4884 -1.14055,-0.88342 -0.20849,-0.29404 -0.54617,-0.46092 -0.84072,-0.65845 -2.16808,-1.45394 -4.58421,-2.48172 -7.01842,-3.39828 -2.96779,-1.11747 -6.00519,-2.08627 -8.83377,-3.53851 -0.718348,-0.36881 -1.344922,-0.91976 -2.100272,-1.20554 -2.52657,-0.95589 -4.862609,-2.32725 -7.260744,-3.55474 -1.231958,-0.63058 -2.431785,-1.4094 -3.785335,-1.70311 -1.052714,-0.22843 -2.089067,-0.5393 -3.087238,-0.94372 -0.794994,-0.3221 -1.590843,-0.67894 -2.269266,-1.21019 -0.364053,-0.28508 -0.713914,-0.62821 -0.872241,-1.07405 -0.117312,-0.33034 -0.05737,-0.70327 0.120358,-1.00136 0.265763,-0.44574 0.654775,-0.83622 1.122816,-1.04089 0.366099,-0.16009 0.788746,-0.22143 1.175956,-0.098 0.442038,0.14091 0.790104,0.46518 1.118218,0.77924 0.378965,0.36273 0.753753,0.75722 1.245183,0.96555 0.05126,0.0217 0.103479,0.0412 0.156512,0.0582 z"
       id="path9029" />
    <path
       style="fill:#ddd4cd;fill-opacity:1;stroke:#ddd4cd;stroke-width:0.264583px;stroke-linecap:butt;stroke-linejoin:miter;stroke-opacity:1"
       d="m 127.16354,175.53152 c -0.83982,1.54821 -1.66895,3.1073 -2.33237,4.74106 -0.23041,0.56741 -0.39712,1.15861 -0.62303,1.72789 -0.33595,0.84658 -0.72037,1.67663 -0.97557,2.55291 -0.0849,0.29138 -0.0259,0.64067 -0.20331,0.88699 -0.0887,0.12312 -0.15741,0.25939 -0.22031,0.39699 -0.0951,0.20803 -0.18693,0.42003 -0.23777,0.64342 -0.0178,0.0783 -0.0285,0.15848 -0.0266,0.23988 0.001,0.0442 0.0439,0.075 0.088,0.059 0.0723,-0.0262 0.13297,-0.0774 0.18534,-0.13187 0.052,-0.054 0.10884,-0.10448 0.14569,-0.17162 0.28228,-0.51424 0.66217,-0.9642 1.00694,-1.43612 0.21216,-0.2904 0.42203,-0.58737 0.56672,-0.91746 0.26977,-0.61543 0.47975,-1.25835 0.80489,-1.84854 0.12354,-0.22425 0.32244,-0.40391 0.42558,-0.63841 0.29383,-0.66806 0.5941,-1.33849 0.99917,-1.94799 0.14524,-0.21854 0.29972,-0.43194 0.47547,-0.62702 0.25847,-0.2869 0.5586,-0.53597 0.79329,-0.84399 0.12454,-0.16345 0.23073,-0.34974 0.25863,-0.55661 0.0239,-0.17698 -0.0247,-0.35703 -0.1119,-0.51103 -0.0651,-0.11495 -0.16535,-0.20475 -0.24102,-0.31267 -0.093,-0.1326 -0.11702,-0.30095 -0.10311,-0.45927 0.0214,-0.24383 0.10828,-0.47511 0.18947,-0.70405 0.0622,-0.17536 0.13472,-0.34954 0.16242,-0.53443 0.0146,-0.0977 0.0166,-0.20673 -0.0405,-0.29205 -0.0585,-0.0874 -0.16537,-0.12406 -0.26481,-0.13935 -0.0959,-0.0147 -0.19819,-0.0381 -0.29008,-0.008 -0.10047,0.0333 -0.18992,0.10271 -0.23875,0.1979 -0.0693,0.13512 -0.0752,0.28996 -0.1113,0.43505 -0.0173,0.0697 -0.042,0.13845 -0.0812,0.199 z"
       id="path3728" />
    <path
       style="fill:#ddd4cd;fill-opacity:1;stroke:#ddd4cd;stroke-width:0.264583px;stroke-linecap:butt;stroke-linejoin:miter;stroke-opacity:1"
       d="m 76.76715,201.59705 c -2.216046,1.81463 -4.100758,3.98198 -6.07163,6.04909 -1.632114,1.71181 -3.361752,3.35044 -5.33068,4.67652 -0.348477,0.2347 -0.73185,0.41641 -1.07182,0.66208 -1.940552,1.40229 -4.11276,2.43235 -6.271625,3.44742 -2.177341,1.02376 -4.374432,2.04788 -6.342462,3.4466 -0.500097,0.35543 -0.973331,0.74635 -1.44422,1.1399 -0.84161,0.70338 -1.769698,1.30187 -2.745765,1.79926 -0.634397,0.32328 -1.282201,0.64651 -1.979834,0.80093 -0.252409,0.0559 -0.519263,0.10715 -0.776316,0.0449 -0.13287,-0.0322 -0.241045,-0.14811 -0.248466,-0.28788 -0.01269,-0.2391 0.09733,-0.46498 0.213719,-0.66575 0.345191,-0.59545 0.798312,-1.12014 1.264437,-1.62263 0.325721,-0.35113 0.69967,-0.65361 1.054156,-0.97532 3.237478,-2.93815 6.32935,-6.04958 9.798507,-8.72161 1.316653,-1.01412 2.837331,-1.7454 4.120932,-2.80193 4.166529,-3.42946 8.37567,-6.80666 12.534754,-10.24568 0.574045,-0.47466 1.207452,-0.87311 1.856331,-1.23595 0.925434,-0.51749 1.88425,-0.99564 2.905946,-1.28749 0.508063,-0.14513 1.039097,-0.26675 1.570451,-0.21082 0.304475,0.032 0.621541,0.15999 0.792665,0.42714 0.198919,0.31054 0.197059,0.70239 0.140222,1.0534 -0.05027,0.31048 -0.09272,0.63657 -0.248269,0.90935 -0.366234,0.64224 -0.930995,1.13823 -1.509886,1.58475 -0.669684,0.51655 -1.392787,0.98492 -1.93793,1.64137 -0.09841,0.1185 -0.190157,0.2426 -0.273217,0.37234 z"
       id="path9267" />
    <path
       style="fill:#8e785e;fill-opacity:1;stroke:#8e785e;stroke-width:0.264583px;stroke-linecap:butt;stroke-linejoin:miter;stroke-opacity:1"
       d="m 168.98822,238.00964 c 0.15115,1.57232 0.0659,3.15507 -0.0617,4.7258 -0.14802,1.82203 -0.34844,3.6449 -0.3153,5.47593 0.004,0.20501 0.0187,0.40965 0.0234,0.61458 0.005,0.19507 -0.0376,0.40146 -0.16666,0.55421 -0.12322,0.14584 -0.3143,0.21622 -0.5008,0.22928 -0.27985,0.0196 -0.56026,-0.0559 -0.80835,-0.18182 -0.16622,-0.0844 -0.28786,-0.23531 -0.44933,-0.32929 -0.88676,-0.51611 -1.85955,-0.8585 -2.83215,-1.173 -1.08566,-0.35106 -2.18691,-0.67441 -3.21506,-1.17744 -0.32989,-0.1614 -0.64334,-0.35334 -0.95632,-0.54542 -1.20781,-0.74126 -2.60973,-1.11917 -3.80943,-1.87348 -0.23095,-0.14521 -0.47884,-0.26067 -0.72438,-0.37852 -0.33194,-0.15932 -0.67346,-0.30141 -0.99049,-0.48924 -0.0991,-0.0587 -0.19916,-0.11919 -0.28219,-0.20051 -0.0209,-0.0205 -0.0681,-0.093 -0.0188,-0.0959 0.60503,-0.0367 1.20962,0.0794 1.78227,0.26898 0.94319,0.31224 1.769,0.93043 2.72751,1.18254 0.42008,0.11049 0.80225,0.32479 1.17182,0.54736 0.39501,0.23789 0.79231,0.48154 1.23263,0.62876 0.0733,0.0245 0.14724,0.0442 0.2184,0.0758 0.68482,0.30416 1.37422,0.61278 2.10612,0.78653 0.42524,0.10095 0.86358,0.13138 1.30122,0.12605 0.36519,-0.004 0.71952,0.098 1.06987,0.18864 0.32857,0.085 0.66478,0.17038 1.00715,0.15107 0.22017,-0.0124 0.45147,-0.059 0.62454,-0.19638 0.28269,-0.22434 0.49392,-0.52979 0.62911,-0.86294 0.18139,-0.447 0.24403,-0.93003 0.29128,-1.40674 0.039,-0.39345 0.0909,-0.78526 0.13024,-1.1791 0.13208,-1.32111 0.17147,-2.65427 0.41696,-3.96188 0.0958,-0.51007 0.2235,-1.01488 0.39843,-1.50381 z"
       id="path274412" />
    <path
       style="fill:#8e785e;fill-opacity:1;stroke:#8e785e;stroke-width:0.264583px;stroke-linecap:butt;stroke-linejoin:miter;stroke-opacity:1"
       d="m 78.206142,240.84908 c 0.476929,0.77493 0.714296,1.67536 0.791539,2.57656 0.115584,1.34853 -0.07334,2.69564 -0.167336,4.03923 -0.02784,0.39792 -0.01241,0.79818 -0.0475,1.19561 -0.566107,6.41257 -0.809919,12.86916 -0.370433,19.29767 0.06052,0.88529 0.605908,1.85306 0.221344,2.65276 -0.156221,0.32486 -0.435049,0.59614 -0.782753,0.70703 -0.444514,0.14176 -0.92544,0.0689 -1.361475,-0.0653 -0.754144,-0.23209 -1.44918,-0.62122 -2.107615,-1.04916 -0.576121,-0.37444 -1.136122,-0.77498 -1.667985,-1.20984 -2.01758,-1.64962 -3.72261,-3.63406 -5.40233,-5.61539 -1.725791,-2.03567 -3.45084,-4.09354 -5.487829,-5.83076 -0.701073,-0.5979 -1.468897,-1.10943 -2.215692,-1.64889 -2.654013,-1.91716 -5.119103,-4.09523 -7.893864,-5.84413 -1.032718,-0.65091 -2.135745,-1.17702 -3.23161,-1.71592 -0.203046,-0.0999 -0.414465,-0.20092 -0.574329,-0.36642 -0.06262,-0.0648 -0.08979,-0.17499 -0.01995,-0.24643 0.113377,-0.11597 0.277041,-0.16321 0.429585,-0.20051 0.507512,-0.1241 1.030898,-0.16246 1.55027,-0.20306 0.572135,-0.0447 1.144229,-0.0907 1.717625,-0.11708 0.222164,-0.0102 0.44595,0.0272 0.665706,0.0596 1.416642,0.20901 2.749556,0.83593 3.885436,1.69701 1.387003,1.05145 2.62928,2.36493 3.361773,3.93859 0.135838,0.29183 0.356849,0.5283 0.565795,0.76887 1.195135,1.37599 2.673195,2.47015 4.203977,3.44399 2.154953,1.37092 4.45273,2.52738 6.474266,4.10005 0.202569,0.15759 0.404803,0.31393 0.614063,0.46304 0.906099,0.64566 1.622534,1.50819 2.33389,2.35326 0.686963,0.81609 1.514703,3.01195 2.27379,2.2516 0.347882,-0.34846 0.548444,-0.82092 0.619566,-1.30393 0.102973,-0.69932 0.0069,-1.40646 -0.06965,-2.10322 -0.0808,-0.73531 -0.17344,-1.48649 -0.03145,-2.22 0.03399,-0.17559 0.107066,-0.34091 0.147488,-0.51522 0.512852,-2.2115 0.642685,-4.48714 0.73201,-6.74846 0.0595,-1.50628 0.129628,-3.01208 0.23504,-4.51629 0.146844,-2.09545 -0.03499,-4.20702 0.246595,-6.29408 0.07887,-0.58458 0.194911,-1.16479 0.362042,-1.73077 z"
       id="path274621" />
    <path
       style="fill:#8e785e;fill-opacity:1;stroke:#8e785e;stroke-width:0.264583px;stroke-linecap:butt;stroke-linejoin:miter;stroke-opacity:1"
       d="m 111.67941,214.82825 c 0.0805,1.3265 -0.031,2.65404 -0.13777,3.9757 -0.10495,1.29864 -0.1995,2.60359 -0.11662,3.90681 0.0159,0.24938 0.0468,0.49742 0.0713,0.74601 0.16038,1.62591 -0.19803,3.318 0.23752,4.89149 0.052,0.18775 0.10322,0.37894 0.1074,0.5744 0.002,0.0781 6.4e-4,0.16104 -0.0378,0.23153 -0.0227,0.0417 -0.073,0.0614 -0.1189,0.0526 -0.0908,-0.0173 -0.16782,-0.0739 -0.23751,-0.13133 -0.10626,-0.0876 -0.20386,-0.18513 -0.29984,-0.28362 -0.47271,-0.48505 -0.83956,-1.0576 -1.23472,-1.60427 -0.32526,-0.44997 -0.6719,-0.89599 -1.11537,-1.23501 -0.0726,-0.0555 -0.13851,-0.15495 -0.23093,-0.14855 -0.0281,0.002 0.0103,0.0374 0.0203,0.0471 0.0462,0.0448 0.0856,0.12064 0.15016,0.12177 0.0235,4.1e-4 -0.0111,-0.033 -0.0193,-0.0428 -0.0529,-0.0627 -0.11124,-0.12015 -0.16473,-0.18251 -0.3022,-0.35233 -0.68163,-0.62513 -1.05607,-0.89462 -0.35926,-0.25856 -1.44147,-0.98468 -1.01559,-0.85549 0.5247,0.15917 1.00594,0.43026 1.47078,0.71594 0.39239,0.24115 0.77359,0.50186 1.18077,0.71774 0.2176,0.11537 0.42024,0.25631 0.63336,0.37942 0.18598,0.10743 0.37668,0.21513 0.58673,0.26659 0.11886,0.0291 0.25273,0.0375 0.36315,-0.0245 0.1111,-0.0624 0.16955,-0.18484 0.20316,-0.30307 0.0335,-0.1177 0.0387,-0.24033 0.0537,-0.36106 0.11898,-0.95642 0.0788,-1.92215 0.0606,-2.88299 -0.0165,-0.87286 0.0281,-1.74608 0.14276,-2.61444 0.0208,-0.1577 0.0321,-0.3167 0.0428,-0.47541 0.0743,-1.09636 0.0226,-2.20051 0.16823,-3.29196 0.0586,-0.43933 0.15036,-0.87527 0.29243,-1.29554 z"
       id="path274832" />
    <path
       style="fill:#8e785e;fill-opacity:1;stroke:#8e785e;stroke-width:0.264583px;stroke-linecap:butt;stroke-linejoin:miter;stroke-opacity:1"
       d="m 39.827743,194.97433 c 0.131385,0.35788 0.284631,0.70834 0.389948,1.07533 0.07038,0.24525 0.118109,0.49878 0.118953,0.75462 2.3e-4,0.0697 -0.0071,0.13911 -0.0099,0.20875 -0.0032,0.0818 -0.03191,0.16265 -0.08326,0.22676 -0.06332,0.079 -0.156655,0.12989 -0.254322,0.15289 -0.08554,0.0201 -0.173934,0.01 -0.26135,7.6e-4 -0.177222,-0.018 -0.346881,-0.0758 -0.514648,-0.13273 -0.164157,-0.0557 -0.330059,-0.11227 -0.503315,-0.1309 -0.06109,-0.007 -0.124726,0.0122 -0.184084,-0.004 -0.04165,-0.0112 -0.09588,-0.0219 -0.112919,-0.0652 -0.018,-0.0457 0.0162,-0.0905 0.04433,-0.12342 0.06583,-0.077 0.14313,-0.14257 0.214415,-0.21447 0.02474,-0.0249 0.03893,-0.0569 0.06099,-0.0839 0.27041,-0.33133 0.501907,-0.69196 0.724852,-1.05625 0.123937,-0.20251 0.245453,-0.40649 0.37031,-0.60844 z"
       id="path275045" />
    <path
       style="fill:#8e785e;fill-opacity:1;stroke:#8e785e;stroke-width:0.264583px;stroke-linecap:butt;stroke-linejoin:miter;stroke-opacity:1"
       d="m 126.73992,194.81905 c -0.16364,0.20342 -0.28937,0.43361 -0.40798,0.6652 -0.13423,0.26209 -0.26036,0.52971 -0.42542,0.77443 -0.11791,0.17481 -0.25038,0.34686 -0.42532,0.46564 -0.0412,0.028 -0.076,0.0634 -0.11552,0.0936 -0.094,0.0719 -0.19819,0.13055 -0.28619,0.20997 -0.0369,0.0333 -0.0777,0.0692 -0.0913,0.11855 -0.003,0.0102 -0.0135,0.0325 -0.003,0.0316 0.183,-0.0157 0.36892,-0.0187 0.55004,0.0161 0.061,0.0117 0.11977,0.0322 0.17974,0.0484 0.20497,0.0552 0.4088,0.12023 0.62058,0.1441 0.14353,0.0162 0.29295,0.0148 0.42989,-0.0339 0.0525,-0.0187 0.10616,-0.0382 0.15027,-0.0738 0.0708,-0.0572 0.12107,-0.13662 0.15058,-0.22214 0.0391,-0.11332 0.0474,-0.23441 0.0475,-0.35343 9e-5,-0.0774 0.001,-0.15512 -0.006,-0.23218 -0.0346,-0.35837 -0.11555,-0.71026 -0.20692,-1.05789 -0.0522,-0.19846 -0.10786,-0.39596 -0.16075,-0.59422 z"
       id="path275293" />
    <path
       style="fill:#8e785e;fill-opacity:1;stroke:#8e785e;stroke-width:0.264583px;stroke-linecap:butt;stroke-linejoin:miter;stroke-opacity:1"
       d="m 272.54916,195.70561 c -0.004,0.44551 0.0849,0.8842 0.16394,1.32053 0.0733,0.40433 0.13932,0.81492 0.11328,1.22721 -0.008,0.13235 -0.0388,0.262 -0.0552,0.39363 -0.1145,0.91788 -0.11496,1.84499 -0.0978,2.76834 0.001,0.0575 0.0603,0.1646 0.003,0.1724 -0.16202,0.0222 -0.32608,-0.0175 -0.47383,-0.083 -0.2407,-0.10666 -0.45067,-0.26809 -0.67444,-0.40441 -0.0724,-0.0441 -0.1546,-0.0717 -0.22351,-0.12114 -0.51029,-0.36627 -1.00256,-0.76161 -1.55109,-1.07092 -0.15725,-0.0887 -0.33362,-0.14211 -0.48488,-0.2407 -0.45232,-0.2948 -0.95352,-0.50243 -1.45508,-0.69697 -0.49469,-0.19187 -0.98363,-0.39733 -1.46566,-0.62155 -0.72072,-0.33525 -1.29283,-0.97151 -2.05022,-1.20819 -0.11709,-0.0366 -0.23042,-0.0842 -0.34337,-0.13175 -0.11732,-0.0494 -0.23949,-0.0896 -0.35011,-0.15267 -0.0126,-0.007 0.0183,0.005 0.0219,0.007 0.0556,0.0231 0.11333,0.0422 0.16651,0.0705 0.31663,0.16833 0.66714,0.25982 1.01818,0.32347 0.45465,0.0824 0.94427,0.0489 1.36488,0.24304 0.9276,0.42806 1.82827,0.91709 2.78371,1.28281 0.12689,0.0486 0.26756,0.0674 0.38329,0.13857 0.42369,0.26059 0.79553,0.59901 1.23345,0.8374 0.15109,0.0823 0.38617,0.0515 0.47539,0.19882 0.0613,0.10113 0.13443,0.2011 0.23799,0.26251 0.0672,0.0399 0.1516,0.0502 0.22562,0.0232 0.10169,-0.0371 0.17935,-0.11937 0.23942,-0.20643 0.10789,-0.15638 0.17934,-0.3361 0.22216,-0.52035 0.033,-0.14188 0.0425,-0.28833 0.0364,-0.43477 -0.0367,-0.87223 0.0744,-1.74734 0.29598,-2.59071 0.0696,-0.26491 0.15006,-0.52701 0.23979,-0.78574 z"
       id="path276210" />
    <path
       style="fill:#8e785e;fill-opacity:1;stroke:#8e785e;stroke-width:0.264583px;stroke-linecap:butt;stroke-linejoin:miter;stroke-opacity:1"
       d="m 246.95122,199.09963 c 0.0391,0.68514 -0.0322,1.37012 -0.1133,2.04967 -0.0872,0.73044 -0.18178,1.46293 -0.17395,2.20034 6.8e-4,0.064 0.003,0.12773 0.0152,0.19095 0.0435,0.23456 0.10217,0.46899 0.1021,0.70869 -3e-5,0.10517 -0.01,0.21435 -0.0583,0.30958 -0.0349,0.0684 -0.10035,0.11909 -0.17516,0.13698 -0.0834,0.0199 -0.17674,0.0256 -0.2531,-0.011 -0.46582,-0.22314 -0.88472,-0.52929 -1.29576,-0.83898 -0.43934,-0.33101 -0.87686,-0.67024 -1.36478,-0.92822 -0.12216,-0.0646 -0.24857,-0.12056 -0.37281,-0.181 -1.0995,-0.53492 -2.25895,-0.98308 -3.24782,-1.70219 -0.10231,-0.0744 -0.22345,-0.11666 -0.34313,-0.15383 -0.2074,-0.0644 -0.42291,-0.10344 -0.62483,-0.18451 -0.0927,-0.0372 -0.18771,-0.0816 -0.25325,-0.1596 -0.0338,-0.0402 -0.10962,-0.14784 -0.0571,-0.14386 0.53567,0.0405 1.05773,0.16934 1.59219,0.22885 0.35473,0.0395 0.69557,0.16559 1.00544,0.34015 0.24946,0.14053 0.45943,0.3397 0.69805,0.49736 0.88795,0.58667 1.84656,1.14365 2.89988,1.30474 0.039,0.006 0.0709,0.0237 0.10378,0.0454 0.14343,0.0946 0.31657,0.14931 0.48919,0.13838 0.11764,-0.007 0.23737,-0.0546 0.31314,-0.14826 0.0737,-0.0911 0.0952,-0.21313 0.0857,-0.32712 -0.004,-0.0483 -0.008,-0.0935 0.002,-0.14303 0.19551,-0.99682 0.17454,-2.05308 0.54887,-2.99741 0.0361,-0.0911 0.11906,-0.15492 0.20906,-0.18835 0.0858,-0.0319 0.17812,-0.0427 0.26921,-0.0438 z"
       id="path276433" />
    <path
       style="fill:#f2f2f2;fill-opacity:1;stroke:#f2f2f2;stroke-width:0.264583px;stroke-linecap:butt;stroke-linejoin:miter;stroke-opacity:1"
       d="m 80.469139,193.68972 c 0.133313,0.61921 0.112625,1.27156 -0.06298,1.88031 -0.138438,0.4799 -0.378649,0.9325 -0.713236,1.30489 -0.07839,0.0872 -0.165062,0.16642 -0.250368,0.24686 -0.0887,0.0836 -0.183712,0.16353 -0.253294,0.26398 -0.02516,0.0363 -0.06455,0.0752 -0.05732,0.12158 0.0031,0.0202 0.03232,0.0355 0.0501,0.0173 0.217419,-0.22298 0.489482,-0.388 0.779631,-0.49829 0.305576,-0.11615 0.630997,-0.19457 0.957342,-0.18854 0.430851,0.008 0.864011,0.0278 1.287371,0.1138 0.330943,0.0673 0.667708,0.1593 0.946336,0.35186 0.0379,0.0262 0.08081,0.0427 0.120748,0.0653 0.10857,0.0614 0.211256,0.13354 0.304678,0.21598 0.04337,0.0383 0.08993,0.0753 0.121061,0.12447 0.0047,0.007 0.01777,0.0301 0.01104,0.0242 -0.462153,-0.40889 -0.872928,-0.8707 -1.285461,-1.32834 -0.09037,-0.10025 -0.188102,-0.19421 -0.272146,-0.29982 -0.123133,-0.15473 -0.266162,-0.29536 -0.364577,-0.46842 -0.05663,-0.0996 -0.08375,-0.21231 -0.09878,-0.32649 -0.02332,-0.17713 -0.09447,-0.34414 -0.182806,-0.49814 -0.145622,-0.25387 -0.336565,-0.48019 -0.464252,-0.74459 -0.03237,-0.067 -0.09817,-0.13495 -0.08179,-0.2076 0.01583,-0.0702 0.01682,-0.1479 -0.01791,-0.21313 -0.03117,-0.0585 -0.09569,-0.0935 -0.161084,-0.097 -0.09149,-0.005 -0.193334,0.0284 -0.243317,0.10292 -0.0051,0.008 -0.0128,0.011 -0.02067,0.0147 -0.0161,0.007 -0.03221,0.0148 -0.04831,0.0223 z"
       id="path304301" />
    <path
       style="fill:#f2f2f2;fill-opacity:1;stroke:#f2f2f2;stroke-width:0.264583px;stroke-linecap:butt;stroke-linejoin:miter;stroke-opacity:1"
       d="m 39.921622,176.75288 c 0.163022,0.0758 0.322281,0.16223 0.465115,0.27207 0.115472,0.0888 0.220035,0.19404 0.29698,0.31839 0.04831,0.0781 0.01531,0.26081 0.106808,0.25271 0.04201,-0.004 0.08267,-0.0201 0.115629,-0.0465 0.04356,-0.0348 0.07403,-0.0827 0.10105,-0.13074 0.03748,-0.0667 0.06866,-0.13752 0.116213,-0.19799 0.02962,-0.0377 0.06757,-0.0698 0.112625,-0.0873 0.02831,-0.011 0.07323,0.009 0.08901,-0.0168 0.01874,-0.0307 0.03773,-0.0713 0.01877,-0.10552 -0.02067,-0.0373 -0.06461,-0.0515 -0.103653,-0.0604 -0.05962,-0.0135 -0.12093,-0.0169 -0.181826,-0.0195 -0.06847,-0.003 -0.136995,-0.004 -0.205471,-0.008 -0.023,-0.001 -0.04537,-0.008 -0.06818,-0.01 -0.198222,-0.0156 -0.397212,-0.0328 -0.591479,-0.0771 -0.09248,-0.0211 -0.183673,-0.0483 -0.271591,-0.0841 z"
       id="path304529" />
    <path
       style="fill:#f2f2f2;fill-opacity:1;stroke:#f2f2f2;stroke-width:0.264583px;stroke-linecap:butt;stroke-linejoin:miter;stroke-opacity:1"
       d="m 113.10434,190.48425 c 0.31843,0.0778 0.64843,0.11357 0.97596,0.0916 0.28143,-0.0189 0.56115,-0.0824 0.81843,-0.19937 0.0275,-0.0125 0.10774,-0.0547 0.0817,-0.0393 -0.13866,0.0821 -0.25843,0.19232 -0.36607,0.31145 -0.18204,0.20146 -0.3283,0.43401 -0.52295,0.62387 -0.0532,0.0519 -0.0922,0.11602 -0.12707,0.181 -0.0738,0.13749 -0.12683,0.28496 -0.19891,0.42324 -0.0242,0.0464 -0.0488,0.0936 -0.0846,0.13215 -0.015,0.0161 -0.0472,0.0598 -0.0536,0.0384 -0.0813,-0.27435 -0.23212,-0.52676 -0.43064,-0.73245 -0.17264,-0.17887 -0.39175,-0.30134 -0.61006,-0.42027 -0.0548,-0.0299 -0.10814,-0.0668 -0.14386,-0.11917 -0.0249,-0.0365 -0.0358,-0.0831 -0.0252,-0.1266 0.0132,-0.0543 0.0517,-0.0988 0.0954,-0.13175 0.0717,-0.0541 0.1589,-0.0862 0.24773,-0.0969 0.0872,-0.0104 0.17375,0.0131 0.25585,0.0476 0.008,0.003 0.0131,0.009 0.0233,0.0104 0.0214,0.003 0.0435,0.005 0.0646,0.006 z"
       id="path304957" />
    <path
       style="fill:#f2f2f2;fill-opacity:1;stroke:#f2f2f2;stroke-width:0.264583px;stroke-linecap:butt;stroke-linejoin:miter;stroke-opacity:1"
       d="m 171.06633,195.53092 c 0.17438,0.13808 0.38192,0.23203 0.5988,0.27972 0.28402,0.0624 0.58272,0.0486 0.86247,-0.0285 0.10827,-0.0298 0.20922,-0.0805 0.31516,-0.11784 0.0723,-0.0255 0.14087,-0.0602 0.20968,-0.0938 0.0675,-0.0329 0.13245,-0.0724 0.20366,-0.0965 0.0186,-0.006 0.0725,-0.0279 0.0579,-0.0139 -0.36444,0.34952 -0.69218,0.73953 -0.95649,1.17046 -0.16113,0.26271 -0.30594,1.12255 -0.40377,0.83019 -0.0866,-0.25885 -0.19504,-0.51197 -0.34189,-0.74274 -0.10191,-0.16015 -0.23323,-0.2982 -0.36421,-0.43589 -0.10946,-0.11507 -0.18872,-0.26111 -0.21493,-0.41854 -0.0185,-0.1113 -0.008,-0.22758 0.0337,-0.33271 z"
       id="path305321" />
    <path
       style="fill:#f2f2f2;fill-opacity:1;stroke:#f2f2f2;stroke-width:0.264583px;stroke-linecap:butt;stroke-linejoin:miter;stroke-opacity:1"
       d="m 128.00463,173.84689 c -0.0272,0.20092 -0.0446,0.40382 -0.0919,0.60142 -0.0329,0.13754 -0.0817,0.27259 -0.15696,0.39291 0,0 -0.004,0.007 -0.004,0.007 0,0 -0.004,0.007 -0.004,0.007 0.11406,-0.005 0.22557,-0.0309 0.33744,-0.0514 0.0515,-0.009 0.10353,-0.0148 0.1553,-0.0225 0.20202,-0.03 0.61686,0.1023 0.60423,-0.10167 -0.004,-0.0648 -0.0294,-0.12618 -0.0623,-0.18145 -0.0555,-0.0932 -0.13378,-0.17212 -0.18003,-0.27074 -0.0158,-0.0337 -0.0304,-0.0681 -0.0491,-0.10041 -0.0531,-0.0913 -0.13058,-0.16932 -0.22487,-0.21791 -0.0783,-0.0404 -0.16779,-0.0583 -0.25563,-0.0522 0,0 -0.006,4e-4 -0.006,4e-4 0,0 -0.003,0.005 -0.003,0.005 -0.0208,3.1e-4 -0.0357,-0.0198 -0.0563,-0.0202 0,0 -0.003,0.005 -0.003,0.005 0,0 3e-5,-3e-5 3e-5,-3e-5 z"
       id="path305621" />
    <path
       style="fill:#f2f2f2;fill-opacity:1;stroke:#f2f2f2;stroke-width:0.264583px;stroke-linecap:butt;stroke-linejoin:miter;stroke-opacity:1"
       d="m 248.01649,175.86556 c 0.1101,0.21552 0.26318,0.40972 0.45052,0.56327 0.15721,0.12885 0.3402,0.22812 0.53737,0.27963 0.0598,0.0156 0.2017,-0.0254 0.18232,0.0333 -0.0143,0.0433 -0.0438,0.0811 -0.0817,0.10638 -0.0521,0.0348 -0.1142,0.0502 -0.17519,0.0605 -0.11152,0.0189 -0.2259,0.0198 -0.3359,0.0476 -0.0361,0.009 -0.0694,0.026 -0.10412,0.0398 -0.16883,0.0669 -0.32351,0.16495 -0.46695,0.27546 -0.20756,0.15991 -0.69373,0.75773 -0.59071,0.51717 0.0965,-0.22529 0.23979,-0.42645 0.33749,-0.65138 0.0139,-0.0321 0.0255,-0.0647 0.0422,-0.0957 0.0825,-0.15302 0.13094,-0.32227 0.15772,-0.49346 0.0288,-0.18394 0.0204,-0.37111 0.0354,-0.55634 0.002,-0.022 0.003,-0.044 0.005,-0.0659 0.002,-0.0201 0.004,-0.0402 0.007,-0.0604 0,0 -3.2e-4,6e-5 -3.2e-4,6e-5 0,0 -6e-5,10e-6 -6e-5,10e-6 z"
       id="path305956" />
    <path
       style="fill:#f2f2f2;fill-opacity:1;stroke:#f2f2f2;stroke-width:0.264583px;stroke-linecap:butt;stroke-linejoin:miter;stroke-opacity:1"
       d="m 273.30632,178.06169 c -0.1759,0.19368 -0.32542,0.40919 -0.46979,0.62682 -0.025,0.0376 -0.0485,0.0764 -0.0798,0.10946 -0.0767,0.0812 -0.17147,0.14276 -0.24896,0.22307 -0.0371,0.0384 -0.073,0.0825 -0.0836,0.13612 -0.003,0.0134 -0.0161,0.0405 -0.002,0.0409 0.0939,0.003 0.18575,-0.0263 0.26948,-0.0669 0.0969,-0.047 0.18877,-0.10425 0.27422,-0.16934 0.12405,-0.0945 0.24655,-0.1929 0.38491,-0.26611 0.0959,-0.0507 0.20065,-0.0882 0.30961,-0.095 0.0561,-0.004 0.11175,0.006 0.16737,0.0142 0.0447,0.006 0.0883,0.0181 0.13226,0.0281 0.0546,0.0125 0.10893,0.0301 0.16502,0.0318 0.0183,5.8e-4 0.0401,0.005 0.0553,-0.008 0,0 0.003,-0.009 0.003,-0.009 -0.002,-0.007 -0.005,-0.0129 -0.0139,-0.0171 -0.1357,-0.0634 -0.28197,-0.1027 -0.41294,-0.17647 -0.0526,-0.0296 -0.0991,-0.0684 -0.14505,-0.1076 -0.10757,-0.0919 -0.20085,-0.19906 -0.30433,-0.29507 z"
       id="path306260" />
  </g>
</svg>
